<?xml version="1.0" encoding="UTF-8" ?>
<!DOCTYPE svg PUBLIC "-//W3C//DTD SVG 1.1//EN" "http://www.w3.org/Graphics/SVG/1.1/DTD/svg11.dtd">
<svg width="640pt" height="640pt" viewBox="0 0 640 640" version="1.1" xmlns="http://www.w3.org/2000/svg">
<path fill="#181919" stroke="#181919" stroke-width="0.09375" opacity="1.00" d=" M 275.16 62.16 C 283.98 51.83 296.47 44.83 309.80 42.34 C 323.37 39.87 337.50 43.64 349.00 50.99 C 361.97 59.37 371.69 72.82 375.08 87.93 C 379.01 103.68 375.37 120.92 366.11 134.16 C 363.96 137.28 361.37 140.05 358.96 142.96 C 372.74 150.85 387.01 159.57 395.61 173.37 C 399.79 179.86 401.37 189.03 396.58 195.63 C 392.14 201.89 384.27 204.03 377.13 205.46 C 384.17 228.36 391.36 251.56 403.67 272.28 C 400.51 274.90 397.64 277.86 394.34 280.29 C 384.58 287.16 375.02 294.31 365.40 301.37 C 363.46 302.79 361.74 304.48 360.17 306.29 C 367.63 308.08 375.36 308.06 382.99 307.87 C 398.08 307.39 413.10 305.81 428.13 304.38 C 437.31 317.92 447.97 330.41 457.13 343.99 C 468.77 360.92 479.61 379.26 482.79 399.89 C 484.16 412.90 482.93 426.40 477.48 438.41 C 467.80 460.57 450.26 477.93 433.01 494.35 C 443.35 494.04 453.69 494.72 464.03 494.51 C 473.70 495.38 484.38 497.18 491.24 504.75 C 495.12 509.18 498.06 514.50 500.02 520.04 C 503.66 534.72 504.98 549.83 506.84 564.81 C 475.09 569.48 443.10 572.71 411.04 574.00 C 388.03 575.07 365.01 575.95 341.96 576.04 C 330.01 576.86 318.02 576.30 306.05 576.42 C 296.42 575.48 286.73 576.51 277.11 575.59 C 258.40 575.34 239.74 574.50 221.07 573.50 C 192.30 572.13 163.65 568.94 135.16 564.81 C 137.02 549.84 138.33 534.73 141.98 520.06 C 145.19 511.26 150.56 502.28 159.58 498.49 C 173.69 492.57 189.24 494.98 204.10 494.50 C 186.67 477.81 168.82 460.25 159.21 437.69 C 153.80 425.45 152.82 411.74 154.34 398.57 C 156.07 386.56 160.92 375.26 166.70 364.69 C 185.81 330.14 214.83 302.26 233.46 267.42 C 242.76 251.02 248.41 232.91 254.42 215.13 C 255.32 211.73 256.07 208.29 257.23 204.96 C 250.49 203.42 243.18 200.75 239.55 194.42 C 235.51 187.62 237.66 179.04 241.75 172.79 C 250.41 159.31 264.44 150.74 278.04 142.96 C 267.96 132.49 261.19 118.71 260.42 104.09 C 259.64 88.91 265.07 73.52 275.16 62.16 M 290.69 66.67 C 281.38 74.74 275.68 86.68 275.04 98.97 C 274.50 111.88 279.78 125.00 289.34 133.74 C 292.42 135.51 296.24 135.38 299.67 136.11 C 313.74 137.48 328.06 137.63 342.05 135.36 C 344.00 134.79 346.57 135.00 347.92 133.21 C 361.09 121.52 365.44 101.32 359.00 85.03 C 355.58 76.51 349.99 68.21 341.81 63.70 C 336.63 59.01 329.49 57.04 322.75 55.76 C 311.14 54.38 299.41 59.17 290.69 66.67 M 293.94 151.85 C 283.64 157.27 273.18 162.69 264.25 170.24 C 259.20 174.67 254.20 179.69 252.16 186.27 C 254.88 189.30 259.19 189.74 262.95 190.54 C 274.85 192.39 286.94 192.32 298.95 192.44 C 313.22 192.38 327.50 192.54 341.77 192.36 C 345.43 193.18 349.22 192.16 352.93 192.17 C 359.41 192.09 365.87 191.60 372.31 190.90 C 376.35 189.76 381.89 189.91 384.38 186.08 C 383.42 181.33 380.20 177.51 376.89 174.16 C 368.56 165.66 358.01 159.86 347.63 154.28 C 345.46 153.17 343.39 151.83 341.06 151.09 C 338.87 151.10 336.73 151.50 334.58 151.81 C 326.91 152.08 319.24 152.69 311.56 152.20 C 307.76 151.99 303.96 151.94 300.19 151.44 C 298.09 151.24 295.82 150.55 293.94 151.85 M 272.58 207.11 C 264.80 234.58 255.26 261.85 240.52 286.45 C 226.52 308.14 209.77 327.85 194.80 348.86 C 187.38 359.38 180.27 370.22 175.04 382.02 C 173.32 386.08 171.55 390.19 170.81 394.57 L 170.25 395.04 C 168.42 405.96 168.01 417.54 171.82 428.12 C 178.14 445.75 191.18 459.77 203.96 473.01 C 213.01 481.72 221.74 490.94 232.22 497.98 C 233.64 498.76 235.32 498.73 236.90 498.89 C 250.26 499.66 263.63 500.56 277.02 500.46 C 305.69 501.84 334.39 500.41 363.05 499.93 C 372.46 499.11 381.96 499.57 391.33 498.34 C 396.54 498.27 401.88 498.38 406.98 497.26 C 410.30 494.90 413.09 491.86 416.13 489.16 C 425.79 480.14 435.42 471.07 444.15 461.13 C 453.37 450.45 462.19 438.80 466.14 425.03 C 468.30 417.90 468.23 410.36 467.79 403.00 C 465.75 389.21 459.56 376.44 452.32 364.66 C 444.28 351.84 435.45 339.48 425.91 327.75 C 419.27 332.86 412.29 337.52 406.01 343.10 C 390.73 355.58 375.26 367.94 358.56 378.48 C 348.08 385.15 336.84 390.73 324.77 393.83 C 315.17 395.27 304.63 394.34 296.65 388.33 C 287.88 382.03 283.88 370.54 285.38 360.04 C 286.72 348.99 292.63 339.09 299.80 330.81 C 309.79 319.38 321.80 309.93 334.02 301.01 C 346.44 292.10 359.21 283.67 372.24 275.66 C 376.13 273.11 380.07 270.64 384.01 268.15 C 375.01 248.42 367.55 228.00 361.74 207.12 C 358.22 207.32 354.70 207.49 351.18 207.55 C 329.40 207.57 307.60 207.31 285.82 207.68 L 285.87 207.46 C 281.44 207.59 277.00 207.34 272.58 207.11 M 343.25 313.20 C 333.63 320.12 324.25 327.47 315.87 335.88 C 309.86 342.07 304.10 348.96 301.49 357.33 C 300.05 362.26 299.72 368.00 302.49 372.55 C 304.83 376.53 309.43 378.65 313.91 378.98 C 321.04 379.64 327.96 377.19 334.37 374.35 C 345.63 369.18 355.92 362.17 365.99 355.02 C 373.09 350.22 379.49 344.48 385.80 338.70 C 392.23 332.93 399.58 328.36 406.47 323.19 C 400.97 323.36 395.51 324.07 390.01 324.05 C 376.94 324.31 363.32 325.26 350.94 320.23 C 347.61 318.87 345.32 316.01 343.25 313.20 M 179.43 509.60 C 174.12 510.54 168.35 510.68 163.69 513.69 C 160.75 516.22 158.91 519.83 157.50 523.39 C 154.47 532.61 153.29 542.30 151.93 551.87 C 155.60 552.11 159.22 552.77 162.88 553.13 C 188.83 556.49 214.98 558.09 241.10 559.27 C 256.96 559.81 272.80 560.63 288.67 560.42 C 290.39 560.84 292.16 561.05 293.94 561.03 C 312.64 560.94 331.34 561.07 350.04 560.96 C 356.98 560.10 363.97 560.64 370.93 560.38 C 377.31 559.60 383.76 560.40 390.14 559.58 C 423.53 558.63 456.91 556.22 490.03 551.81 C 488.75 542.56 487.56 533.23 484.77 524.28 C 483.39 520.38 481.44 516.46 478.27 513.71 C 474.26 511.09 469.32 510.65 464.70 510.00 C 461.24 509.39 457.71 508.70 454.19 509.18 C 414.57 513.11 374.80 515.25 335.02 516.01 C 318.70 515.84 302.37 516.85 286.05 516.04 C 255.73 516.18 225.41 513.71 195.30 510.45 C 190.04 509.95 184.71 508.43 179.43 509.60 Z" />
<path fill="#707575" stroke="#707575" stroke-width="0.09375" opacity="1.00" d=" M 290.69 66.67 C 299.41 59.17 311.14 54.38 322.75 55.76 C 313.94 62.18 303.67 66.98 296.65 75.58 C 289.26 85.06 285.20 97.64 287.48 109.63 C 289.45 119.27 294.57 127.83 299.67 136.11 C 296.24 135.38 292.42 135.51 289.34 133.74 C 279.78 125.00 274.50 111.88 275.04 98.97 C 275.68 86.68 281.38 74.74 290.69 66.67 Z" />
<path fill="#4f5454" stroke="#4f5454" stroke-width="0.09375" opacity="1.00" d=" M 322.75 55.76 C 329.49 57.04 336.63 59.01 341.81 63.70 C 345.86 71.84 351.43 79.34 353.57 88.32 C 357.17 103.38 354.36 119.32 347.92 133.21 C 346.57 135.00 344.00 134.79 342.05 135.36 C 328.06 137.63 313.74 137.48 299.67 136.11 C 294.57 127.83 289.45 119.27 287.48 109.63 C 285.20 97.64 289.26 85.06 296.65 75.58 C 303.67 66.98 313.94 62.18 322.75 55.76 Z" />
<path fill="#414444" stroke="#414444" stroke-width="0.09375" opacity="1.00" d=" M 341.81 63.70 C 349.99 68.21 355.58 76.51 359.00 85.03 C 365.44 101.32 361.09 121.52 347.92 133.21 C 354.36 119.32 357.17 103.38 353.57 88.32 C 351.43 79.34 345.86 71.84 341.81 63.70 Z" />
<path fill="#707575" stroke="#707575" stroke-width="0.09375" opacity="1.00" d=" M 293.94 151.85 C 295.82 150.55 298.09 151.24 300.19 151.44 C 303.96 151.94 307.76 151.99 311.56 152.20 C 301.95 158.39 292.05 164.12 282.64 170.61 C 276.98 174.52 271.39 178.98 268.19 185.23 C 291.13 187.39 314.15 188.70 337.05 191.16 C 338.65 191.42 340.20 191.91 341.77 192.36 C 327.50 192.54 313.22 192.38 298.95 192.44 C 286.94 192.32 274.85 192.39 262.95 190.54 C 259.19 189.74 254.88 189.30 252.16 186.27 C 254.20 179.69 259.20 174.67 264.25 170.24 C 273.18 162.69 283.64 157.27 293.94 151.85 Z" />
<path fill="#414444" stroke="#414444" stroke-width="0.09375" opacity="1.00" d=" M 334.58 151.81 C 336.73 151.50 338.87 151.10 341.06 151.09 C 343.39 151.83 345.46 153.17 347.63 154.28 C 358.01 159.86 368.56 165.66 376.89 174.16 C 380.20 177.51 383.42 181.33 384.38 186.08 C 381.89 189.91 376.35 189.76 372.31 190.90 C 372.63 190.53 373.27 189.79 373.59 189.42 C 371.94 184.04 368.37 179.52 364.38 175.66 C 355.21 166.79 344.28 160.05 334.58 151.81 Z" />
<path fill="#4f5454" stroke="#4f5454" stroke-width="0.09375" opacity="1.00" d=" M 311.56 152.20 C 319.24 152.69 326.91 152.08 334.58 151.81 C 344.28 160.05 355.21 166.79 364.38 175.66 C 368.37 179.52 371.94 184.04 373.59 189.42 C 373.27 189.79 372.63 190.53 372.31 190.90 C 365.87 191.60 359.41 192.09 352.93 192.17 C 349.22 192.16 345.43 193.18 341.77 192.36 C 340.20 191.91 338.65 191.42 337.05 191.16 C 314.15 188.70 291.13 187.39 268.19 185.23 C 271.39 178.98 276.98 174.52 282.64 170.61 C 292.05 164.12 301.95 158.39 311.56 152.20 Z" />
<path fill="#707575" stroke="#707575" stroke-width="0.09375" opacity="1.00" d=" M 272.58 207.11 C 277.00 207.34 281.44 207.59 285.87 207.46 L 285.82 207.68 C 284.33 213.23 283.24 218.91 281.33 224.34 C 275.86 238.23 270.95 252.34 265.17 266.11 C 255.59 287.12 243.17 306.75 229.07 325.02 C 218.74 338.02 208.74 351.30 197.88 363.87 C 190.98 371.97 183.91 379.92 177.11 388.10 C 175.17 390.39 173.31 392.84 170.81 394.57 C 171.55 390.19 173.32 386.08 175.04 382.02 C 180.27 370.22 187.38 359.38 194.80 348.86 C 209.77 327.85 226.52 308.14 240.52 286.45 C 255.26 261.85 264.80 234.58 272.58 207.11 Z" />
<path fill="#414444" stroke="#414444" stroke-width="0.09375" opacity="1.00" d=" M 351.18 207.55 C 354.70 207.49 358.22 207.32 361.74 207.12 C 367.55 228.00 375.01 248.42 384.01 268.15 C 380.07 270.64 376.13 273.11 372.24 275.66 C 369.12 271.22 366.34 266.51 364.50 261.39 C 357.90 244.05 355.10 225.60 351.18 207.55 Z" />
<path fill="#4f5454" stroke="#4f5454" stroke-width="0.09375" opacity="1.00" d=" M 285.82 207.68 C 307.60 207.31 329.40 207.57 351.18 207.55 C 355.10 225.60 357.90 244.05 364.50 261.39 C 366.34 266.51 369.12 271.22 372.24 275.66 C 359.21 283.67 346.44 292.10 334.02 301.01 C 321.80 309.93 309.79 319.38 299.80 330.81 C 292.63 339.09 286.72 348.99 285.38 360.04 C 283.88 370.54 287.88 382.03 296.65 388.33 C 304.63 394.34 315.17 395.27 324.77 393.83 C 334.64 394.39 344.09 390.78 353.00 386.94 C 377.44 375.71 400.21 361.24 422.55 346.35 C 433.34 360.38 438.84 377.66 442.31 394.82 C 443.99 403.94 445.38 413.39 443.49 422.60 C 441.21 434.04 435.32 444.36 428.92 453.96 C 421.06 465.23 411.92 475.52 402.69 485.66 C 398.79 489.78 394.58 493.65 391.33 498.34 C 381.96 499.57 372.46 499.11 363.05 499.93 C 334.39 500.41 305.69 501.84 277.02 500.46 C 263.63 500.56 250.26 499.66 236.90 498.89 C 235.32 498.73 233.64 498.76 232.22 497.98 C 221.74 490.94 213.01 481.72 203.96 473.01 C 191.18 459.77 178.14 445.75 171.82 428.12 C 168.01 417.54 168.42 405.96 170.25 395.04 L 170.81 394.57 C 173.31 392.84 175.17 390.39 177.11 388.10 C 183.91 379.92 190.98 371.97 197.88 363.87 C 208.74 351.30 218.74 338.02 229.07 325.02 C 243.17 306.75 255.59 287.12 265.17 266.11 C 270.95 252.34 275.86 238.23 281.33 224.34 C 283.24 218.91 284.33 213.23 285.82 207.68 Z" />
<path fill="#414444" stroke="#414444" stroke-width="0.09375" opacity="1.00" d=" M 343.25 313.20 C 345.32 316.01 347.61 318.87 350.94 320.23 C 363.32 325.26 376.94 324.31 390.01 324.05 C 395.51 324.07 400.97 323.36 406.47 323.19 C 399.58 328.36 392.23 332.93 385.80 338.70 C 379.49 344.48 373.09 350.22 365.99 355.02 C 355.92 362.17 345.63 369.18 334.37 374.35 C 327.96 377.19 321.04 379.64 313.91 378.98 C 309.43 378.65 304.83 376.53 302.49 372.55 C 299.72 368.00 300.05 362.26 301.49 357.33 C 304.10 348.96 309.86 342.07 315.87 335.88 C 324.25 327.47 333.63 320.12 343.25 313.20 Z" />
<path fill="#414444" stroke="#414444" stroke-width="0.09375" opacity="1.00" d=" M 406.01 343.10 C 412.29 337.52 419.27 332.86 425.91 327.75 C 435.45 339.48 444.28 351.84 452.32 364.66 C 459.56 376.44 465.75 389.21 467.79 403.00 C 468.23 410.36 468.30 417.90 466.14 425.03 C 462.19 438.80 453.37 450.45 444.15 461.13 C 435.42 471.07 425.79 480.14 416.13 489.16 C 413.09 491.86 410.30 494.90 406.98 497.26 C 401.88 498.38 396.54 498.27 391.33 498.34 C 394.58 493.65 398.79 489.78 402.69 485.66 C 411.92 475.52 421.06 465.23 428.92 453.96 C 435.32 444.36 441.21 434.04 443.49 422.60 C 445.38 413.39 443.99 403.94 442.31 394.82 C 438.84 377.66 433.34 360.38 422.55 346.35 C 400.21 361.24 377.44 375.71 353.00 386.94 C 344.09 390.78 334.64 394.39 324.77 393.83 C 336.84 390.73 348.08 385.15 358.56 378.48 C 375.26 367.94 390.73 355.58 406.01 343.10 Z" />
<path fill="#707575" stroke="#707575" stroke-width="0.09375" opacity="1.00" d=" M 179.43 509.60 C 184.71 508.43 190.04 509.95 195.30 510.45 C 189.42 513.26 182.81 514.58 177.48 518.49 C 174.31 520.71 171.95 523.87 170.16 527.26 C 165.93 535.26 163.90 544.20 162.88 553.13 C 159.22 552.77 155.60 552.11 151.93 551.87 C 153.29 542.30 154.47 532.61 157.50 523.39 C 158.91 519.83 160.75 516.22 163.69 513.69 C 168.35 510.68 174.12 510.54 179.43 509.60 Z" />
<path fill="#4f5454" stroke="#4f5454" stroke-width="0.09375" opacity="1.00" d=" M 454.19 509.18 C 457.71 508.70 461.24 509.39 464.70 510.00 C 468.61 518.59 473.00 527.29 473.87 536.83 C 461.30 539.28 448.52 540.61 435.87 542.71 C 408.66 546.77 381.52 551.37 354.17 554.36 C 332.38 556.88 310.46 558.03 288.67 560.42 C 272.80 560.63 256.96 559.81 241.10 559.27 C 214.98 558.09 188.83 556.49 162.88 553.13 C 163.90 544.20 165.93 535.26 170.16 527.26 C 171.95 523.87 174.31 520.71 177.48 518.49 C 182.81 514.58 189.42 513.26 195.30 510.45 C 225.41 513.71 255.73 516.18 286.05 516.04 C 302.37 516.85 318.70 515.84 335.02 516.01 C 374.80 515.25 414.57 513.11 454.19 509.18 Z" />
<path fill="#414444" stroke="#414444" stroke-width="0.09375" opacity="1.00" d=" M 464.70 510.00 C 469.32 510.65 474.26 511.09 478.27 513.71 C 481.44 516.46 483.39 520.38 484.77 524.28 C 487.56 533.23 488.75 542.56 490.03 551.81 C 456.91 556.22 423.53 558.63 390.14 559.58 C 383.76 560.40 377.31 559.60 370.93 560.38 C 363.97 560.64 356.98 560.10 350.04 560.96 C 331.34 561.07 312.64 560.94 293.94 561.03 C 292.16 561.05 290.39 560.84 288.67 560.42 C 310.46 558.03 332.38 556.88 354.17 554.36 C 381.52 551.37 408.66 546.77 435.87 542.71 C 448.52 540.61 461.30 539.28 473.87 536.83 C 473.00 527.29 468.61 518.59 464.70 510.00 Z" />
</svg>
