<?xml version="1.0" encoding="UTF-8" ?>
<!DOCTYPE svg PUBLIC "-//W3C//DTD SVG 1.1//EN" "http://www.w3.org/Graphics/SVG/1.1/DTD/svg11.dtd">
<svg width="640pt" height="640pt" viewBox="0 0 640 640" version="1.1" xmlns="http://www.w3.org/2000/svg">
<path fill="#181919" stroke="#181919" stroke-width="0.09375" opacity="1.00" d=" M 303.90 28.22 C 317.27 25.70 331.13 27.06 344.19 30.57 C 350.52 32.16 355.56 37.55 356.32 44.09 C 358.18 57.06 359.65 70.10 362.12 82.98 C 364.32 94.62 365.53 106.49 368.82 117.90 C 389.32 119.70 409.77 122.14 430.09 125.45 C 432.65 125.98 435.43 125.94 437.82 127.14 C 440.70 138.51 439.82 150.37 439.84 161.99 C 439.90 168.29 438.82 174.61 436.19 180.38 C 416.34 182.01 396.64 185.47 376.74 186.56 C 376.89 188.56 377.05 190.57 377.21 192.57 C 385.64 195.11 394.15 199.33 399.15 206.87 C 405.40 217.06 405.33 229.59 403.89 241.07 C 401.58 252.23 396.69 264.65 385.57 269.62 C 386.63 273.63 387.25 278.08 390.08 281.32 C 392.98 282.09 395.85 280.57 398.44 279.42 C 406.14 275.47 412.83 269.88 419.43 264.36 C 446.72 241.04 471.72 215.04 500.59 193.62 C 506.48 189.60 512.63 185.05 519.96 184.44 C 525.62 183.90 530.84 188.15 532.50 193.40 C 534.90 200.76 533.59 208.62 532.52 216.09 C 526.58 252.72 515.43 288.21 504.90 323.71 C 502.27 331.70 500.53 339.94 498.39 348.07 C 491.39 374.50 484.71 401.01 477.51 427.39 C 471.42 450.59 464.31 473.52 458.94 496.91 C 466.89 496.79 475.14 496.85 482.35 500.69 C 490.53 504.74 495.35 513.12 498.46 521.34 C 502.23 536.02 503.38 551.19 505.34 566.17 C 488.60 568.77 471.76 570.59 454.95 572.68 C 407.73 576.22 360.35 577.68 313.00 577.95 C 252.44 576.84 191.60 575.74 131.65 566.17 C 133.61 551.18 134.76 536.01 138.53 521.33 C 141.97 511.91 148.12 502.39 158.16 499.21 C 164.48 496.57 171.37 496.99 178.06 496.91 C 174.32 481.21 170.23 465.59 165.64 450.12 C 154.94 410.64 144.42 371.11 134.40 331.46 C 122.93 292.38 110.19 253.44 104.03 213.06 C 103.08 205.47 101.96 197.00 106.10 190.11 C 109.26 184.81 116.29 183.23 121.87 185.24 C 129.73 187.94 136.34 193.20 142.87 198.18 C 170.00 219.87 194.30 244.81 220.88 267.14 C 226.65 271.82 232.54 276.50 239.26 279.76 C 241.65 280.78 244.31 282.05 246.97 281.29 C 249.71 278.01 250.39 273.64 251.43 269.62 C 240.32 264.66 235.43 252.26 233.12 241.10 C 231.82 230.14 231.42 218.15 237.18 208.28 C 242.00 199.97 250.98 195.20 259.93 192.60 C 260.10 190.58 260.23 188.56 260.41 186.54 C 240.59 185.48 220.96 182.01 201.18 180.39 C 198.38 174.35 197.42 167.67 197.49 161.06 C 197.66 149.76 196.70 138.24 199.50 127.17 C 201.77 125.95 204.47 126.00 206.95 125.49 C 227.31 122.17 247.81 119.69 268.36 117.91 C 269.06 115.25 269.84 112.61 270.37 109.91 C 273.57 92.03 276.62 74.12 278.92 56.10 C 280.25 49.12 279.45 41.04 284.52 35.38 C 289.51 30.14 297.16 29.41 303.90 28.22 M 308.12 42.89 C 303.91 43.59 299.67 44.23 295.62 45.59 C 291.70 74.48 288.24 103.55 280.68 131.77 C 258.06 134.82 235.30 136.98 212.87 141.30 C 212.88 144.94 212.96 148.59 212.97 152.24 C 213.06 156.32 213.55 160.38 214.19 164.42 C 227.77 166.08 241.36 167.66 254.88 169.69 C 262.08 170.53 269.22 172.02 276.49 172.12 C 276.10 177.60 275.82 183.08 275.47 188.56 C 299.28 186.70 323.22 186.60 347.09 187.52 C 351.90 187.80 356.68 188.56 361.51 188.57 C 361.24 183.09 360.90 177.60 360.57 172.12 C 368.24 171.97 375.78 170.42 383.39 169.52 C 396.55 167.48 409.82 166.15 423.01 164.31 C 423.46 161.26 423.82 158.20 424.10 155.14 C 424.13 150.51 424.33 145.89 424.28 141.27 C 401.79 137.00 378.99 134.85 356.33 131.75 C 349.72 107.01 346.29 81.59 342.55 56.30 C 341.87 52.73 342.16 48.92 340.79 45.52 C 330.30 42.15 319.02 41.75 308.12 42.89 M 469.15 240.09 C 453.66 253.92 438.75 268.43 422.57 281.47 C 413.18 288.90 402.78 296.23 390.45 297.22 C 386.66 296.09 382.56 295.17 379.65 292.28 C 373.70 286.83 372.13 278.56 370.23 271.09 C 365.44 270.65 360.66 270.17 355.86 269.80 C 341.94 268.54 327.95 268.40 313.98 268.53 C 298.20 268.30 282.45 269.56 266.75 271.05 C 264.72 279.38 262.76 289.03 255.03 294.04 C 251.20 296.92 246.30 296.38 241.81 296.61 C 231.02 294.14 221.94 287.42 213.44 280.66 C 198.94 268.85 185.40 255.93 171.55 243.38 C 157.79 231.15 144.49 218.35 129.76 207.27 C 126.20 204.57 122.46 202.09 118.46 200.09 C 118.10 207.18 119.55 214.15 120.77 221.09 C 126.66 253.00 136.02 284.12 145.51 315.11 C 145.94 318.64 147.83 321.82 148.55 325.31 C 153.33 345.27 158.90 365.03 163.94 384.93 C 170.45 409.67 176.97 434.42 184.01 459.01 C 187.58 471.47 190.44 484.12 194.08 496.56 C 237.13 502.31 280.65 502.77 324.02 502.49 C 348.05 502.64 372.09 502.34 396.09 500.98 C 397.15 500.72 398.70 501.13 399.52 500.41 C 405.54 500.59 411.52 499.75 417.51 499.31 C 425.97 498.47 434.47 497.91 442.88 496.54 C 447.66 479.98 451.49 463.15 456.50 446.65 C 467.85 405.60 478.37 364.33 489.07 323.11 C 495.16 303.31 501.11 283.46 506.53 263.46 C 508.08 257.21 510.10 251.06 510.96 244.66 C 514.54 232.63 516.17 220.10 518.67 207.82 C 519.16 205.28 519.05 202.68 518.97 200.11 C 500.22 210.51 485.11 226.03 469.15 240.09 M 291.93 202.97 C 283.16 203.28 274.38 204.35 265.92 206.71 C 259.11 208.43 251.18 211.64 248.91 218.99 C 246.18 227.85 247.62 237.53 250.77 246.08 C 252.34 250.44 255.66 255.37 260.93 254.93 C 272.89 253.90 284.89 253.36 296.88 252.76 C 312.92 252.83 328.99 251.80 345.01 253.07 C 351.94 253.01 358.85 254.06 365.77 253.88 C 370.05 254.42 374.43 255.36 378.73 254.63 C 383.47 253.23 385.50 248.14 387.00 243.90 C 389.53 235.69 390.73 226.55 387.81 218.29 C 385.64 212.26 379.38 209.26 373.69 207.42 C 361.08 203.47 347.78 202.99 334.68 202.43 C 320.45 201.64 306.15 201.98 291.93 202.97 M 163.33 513.49 C 158.23 515.02 155.82 520.33 153.90 524.84 C 150.92 534.06 149.69 543.73 148.42 553.30 C 150.92 553.62 153.40 554.07 155.92 554.25 C 199.17 559.95 242.90 561.34 286.46 562.16 C 291.95 562.80 297.48 562.35 303.00 562.49 C 318.65 562.39 334.30 562.58 349.95 562.43 C 357.64 561.72 365.36 562.28 373.06 561.70 C 411.61 560.61 450.24 558.69 488.48 553.26 C 487.96 548.68 487.37 544.11 486.56 539.57 C 485.03 531.81 483.87 523.49 478.80 517.11 C 476.54 513.92 472.51 513.01 468.92 512.27 C 463.27 511.35 457.53 510.02 451.79 511.03 C 430.94 513.57 410.01 515.54 389.03 516.59 C 367.05 517.79 345.04 517.58 323.04 517.84 C 292.68 517.67 262.28 517.90 231.97 515.62 C 218.89 514.81 205.85 513.16 192.81 512.11 C 187.26 511.37 181.63 509.98 176.03 510.98 C 171.77 511.66 167.43 512.08 163.33 513.49 Z" />
<path fill="#4f5454" stroke="#4f5454" stroke-width="0.09375" opacity="1.00" d=" M 308.12 42.89 C 319.02 41.75 330.30 42.15 340.79 45.52 C 342.16 48.92 341.87 52.73 342.55 56.30 C 346.29 81.59 349.72 107.01 356.33 131.75 C 378.99 134.85 401.79 137.00 424.28 141.27 C 424.33 145.89 424.13 150.51 424.10 155.14 C 397.77 158.00 371.34 159.85 345.07 163.16 C 345.46 171.30 346.51 179.39 347.09 187.52 C 323.22 186.60 299.28 186.70 275.47 188.56 C 275.82 183.08 276.10 177.60 276.49 172.12 C 269.22 172.02 262.08 170.53 254.88 169.69 C 241.36 167.66 227.77 166.08 214.19 164.42 C 213.55 160.38 213.06 156.32 212.97 152.24 C 240.38 150.50 267.74 147.83 295.05 144.92 C 300.28 111.04 304.95 77.04 308.12 42.89 Z" />
<path fill="#707575" stroke="#707575" stroke-width="0.09375" opacity="1.00" d=" M 295.62 45.59 C 299.67 44.23 303.91 43.59 308.12 42.89 C 304.95 77.04 300.28 111.04 295.05 144.92 C 267.74 147.83 240.38 150.50 212.97 152.24 C 212.96 148.59 212.88 144.94 212.87 141.30 C 235.30 136.98 258.06 134.82 280.68 131.77 C 288.24 103.55 291.70 74.48 295.62 45.59 Z" />
<path fill="#414444" stroke="#414444" stroke-width="0.09375" opacity="1.00" d=" M 345.07 163.16 C 371.34 159.85 397.77 158.00 424.10 155.14 C 423.82 158.20 423.46 161.26 423.01 164.31 C 409.82 166.15 396.55 167.48 383.39 169.52 C 375.78 170.42 368.24 171.97 360.57 172.12 C 360.90 177.60 361.24 183.09 361.51 188.57 C 356.68 188.56 351.90 187.80 347.09 187.52 C 346.51 179.39 345.46 171.30 345.07 163.16 Z" />
<path fill="#4f5454" stroke="#4f5454" stroke-width="0.09375" opacity="1.00" d=" M 469.15 240.09 C 485.11 226.03 500.22 210.51 518.97 200.11 C 519.05 202.68 519.16 205.28 518.67 207.82 C 516.17 220.10 514.54 232.63 510.96 244.66 C 506.56 252.97 503.29 261.82 499.28 270.32 C 490.55 288.46 482.03 306.71 474.27 325.30 C 459.58 362.55 443.68 399.32 428.36 436.32 C 420.50 454.35 412.74 472.44 404.11 490.13 C 402.51 493.52 401.16 497.03 399.52 500.41 C 398.70 501.13 397.15 500.72 396.09 500.98 C 372.09 502.34 348.05 502.64 324.02 502.49 C 280.65 502.77 237.13 502.31 194.08 496.56 C 190.44 484.12 187.58 471.47 184.01 459.01 C 176.97 434.42 170.45 409.67 163.94 384.93 C 158.90 365.03 153.33 345.27 148.55 325.31 C 147.83 321.82 145.94 318.64 145.51 315.11 C 145.61 312.86 145.81 310.61 145.59 308.37 C 141.84 280.31 134.97 252.78 130.92 224.77 C 143.29 236.50 155.69 248.21 168.75 259.19 C 181.76 270.03 194.91 280.95 209.81 289.14 C 219.58 294.14 230.67 298.41 241.81 296.61 C 246.30 296.38 251.20 296.92 255.03 294.04 C 262.76 289.03 264.72 279.38 266.75 271.05 C 282.45 269.56 298.20 268.30 313.98 268.53 C 327.95 268.40 341.94 268.54 355.86 269.80 C 358.08 280.00 363.42 289.89 372.18 295.89 C 377.58 299.52 384.44 298.27 390.45 297.22 C 402.78 296.23 413.18 288.90 422.57 281.47 C 438.75 268.43 453.66 253.92 469.15 240.09 Z" />
<path fill="#707575" stroke="#707575" stroke-width="0.09375" opacity="1.00" d=" M 118.46 200.09 C 122.46 202.09 126.20 204.57 129.76 207.27 C 144.49 218.35 157.79 231.15 171.55 243.38 C 185.40 255.93 198.94 268.85 213.44 280.66 C 221.94 287.42 231.02 294.14 241.81 296.61 C 230.67 298.41 219.58 294.14 209.81 289.14 C 194.91 280.95 181.76 270.03 168.75 259.19 C 155.69 248.21 143.29 236.50 130.92 224.77 C 134.97 252.78 141.84 280.31 145.59 308.37 C 145.81 310.61 145.61 312.86 145.51 315.11 C 136.02 284.12 126.66 253.00 120.77 221.09 C 119.55 214.15 118.10 207.18 118.46 200.09 Z" />
<path fill="#4f5454" stroke="#4f5454" stroke-width="0.09375" opacity="1.00" d=" M 291.93 202.97 C 306.15 201.98 320.45 201.64 334.68 202.43 C 346.06 204.58 358.44 204.87 368.31 211.61 C 373.82 215.22 376.06 221.90 376.62 228.16 C 377.06 233.44 376.67 238.89 374.82 243.89 C 373.23 248.27 369.39 251.23 365.77 253.88 C 358.85 254.06 351.94 253.01 345.01 253.07 C 328.99 251.80 312.92 252.83 296.88 252.76 C 299.76 252.45 302.63 252.03 305.50 251.64 C 294.44 249.71 283.17 248.37 272.59 244.45 C 268.28 242.82 263.92 240.55 261.26 236.65 C 257.56 231.46 257.49 224.41 259.77 218.63 C 261.61 213.87 265.41 210.33 268.57 206.47 C 267.91 206.53 266.58 206.65 265.92 206.71 C 274.38 204.35 283.16 203.28 291.93 202.97 Z" />
<path fill="#414444" stroke="#414444" stroke-width="0.09375" opacity="1.00" d=" M 334.68 202.43 C 347.78 202.99 361.08 203.47 373.69 207.42 C 379.38 209.26 385.64 212.26 387.81 218.29 C 390.73 226.55 389.53 235.69 387.00 243.90 C 385.50 248.14 383.47 253.23 378.73 254.63 C 374.43 255.36 370.05 254.42 365.77 253.88 C 369.39 251.23 373.23 248.27 374.82 243.89 C 376.67 238.89 377.06 233.44 376.62 228.16 C 376.06 221.90 373.82 215.22 368.31 211.61 C 358.44 204.87 346.06 204.58 334.68 202.43 Z" />
<path fill="#707575" stroke="#707575" stroke-width="0.09375" opacity="1.00" d=" M 248.91 218.99 C 251.18 211.64 259.11 208.43 265.92 206.71 C 266.58 206.65 267.91 206.53 268.57 206.47 C 265.41 210.33 261.61 213.87 259.77 218.63 C 257.49 224.41 257.56 231.46 261.26 236.65 C 263.92 240.55 268.28 242.82 272.59 244.45 C 283.17 248.37 294.44 249.71 305.50 251.64 C 302.63 252.03 299.76 252.45 296.88 252.76 C 284.89 253.36 272.89 253.90 260.93 254.93 C 255.66 255.37 252.34 250.44 250.77 246.08 C 247.62 237.53 246.18 227.85 248.91 218.99 Z" />
<path fill="#414444" stroke="#414444" stroke-width="0.09375" opacity="1.00" d=" M 499.28 270.32 C 503.29 261.82 506.56 252.97 510.96 244.66 C 510.10 251.06 508.08 257.21 506.53 263.46 C 501.11 283.46 495.16 303.31 489.07 323.11 C 478.37 364.33 467.85 405.60 456.50 446.65 C 451.49 463.15 447.66 479.98 442.88 496.54 C 434.47 497.91 425.97 498.47 417.51 499.31 C 411.52 499.75 405.54 500.59 399.52 500.41 C 401.16 497.03 402.51 493.52 404.11 490.13 C 412.74 472.44 420.50 454.35 428.36 436.32 C 443.68 399.32 459.58 362.55 474.27 325.30 C 482.03 306.71 490.55 288.46 499.28 270.32 Z" />
<path fill="#414444" stroke="#414444" stroke-width="0.09375" opacity="1.00" d=" M 355.86 269.80 C 360.66 270.17 365.44 270.65 370.23 271.09 C 372.13 278.56 373.70 286.83 379.65 292.28 C 382.56 295.17 386.66 296.09 390.45 297.22 C 384.44 298.27 377.58 299.52 372.18 295.89 C 363.42 289.89 358.08 280.00 355.86 269.80 Z" />
<path fill="#707575" stroke="#707575" stroke-width="0.09375" opacity="1.00" d=" M 163.33 513.49 C 167.43 512.08 171.77 511.66 176.03 510.98 C 181.63 509.98 187.26 511.37 192.81 512.11 C 186.47 514.45 179.71 516.15 174.19 520.21 C 168.99 524.03 166.17 530.10 164.00 536.00 C 161.80 541.86 160.78 548.06 159.84 554.22 C 158.53 554.24 157.22 554.25 155.92 554.25 C 153.40 554.07 150.92 553.62 148.42 553.30 C 149.69 543.73 150.92 534.06 153.90 524.84 C 155.82 520.33 158.23 515.02 163.33 513.49 Z" />
<path fill="#4f5454" stroke="#4f5454" stroke-width="0.09375" opacity="1.00" d=" M 389.03 516.59 C 410.01 515.54 430.94 513.57 451.79 511.03 C 456.77 513.91 461.89 516.98 465.36 521.71 C 468.95 526.58 470.19 532.68 470.94 538.58 C 446.29 542.20 421.65 545.91 397.03 549.74 C 368.50 554.24 339.76 557.33 310.97 559.63 C 302.80 560.46 294.53 560.49 286.46 562.16 C 242.90 561.34 199.17 559.95 155.92 554.25 C 157.22 554.25 158.53 554.24 159.84 554.22 C 160.78 548.06 161.80 541.86 164.00 536.00 C 166.17 530.10 168.99 524.03 174.19 520.21 C 179.71 516.15 186.47 514.45 192.81 512.11 C 205.85 513.16 218.89 514.81 231.97 515.62 C 262.28 517.90 292.68 517.67 323.04 517.84 C 345.04 517.58 367.05 517.79 389.03 516.59 Z" />
<path fill="#414444" stroke="#414444" stroke-width="0.09375" opacity="1.00" d=" M 451.79 511.03 C 457.53 510.02 463.27 511.35 468.92 512.27 C 472.51 513.01 476.54 513.92 478.80 517.11 C 483.87 523.49 485.03 531.81 486.56 539.57 C 487.37 544.11 487.96 548.68 488.48 553.26 C 450.24 558.69 411.61 560.61 373.06 561.70 C 365.36 562.28 357.64 561.72 349.95 562.43 C 334.30 562.58 318.65 562.39 303.00 562.49 C 297.48 562.35 291.95 562.80 286.46 562.16 C 294.53 560.49 302.80 560.46 310.97 559.63 C 339.76 557.33 368.50 554.24 397.03 549.74 C 421.65 545.91 446.29 542.20 470.94 538.58 C 470.19 532.68 468.95 526.58 465.36 521.71 C 461.89 516.98 456.77 513.91 451.79 511.03 Z" />
</svg>
