<?xml version="1.0" encoding="UTF-8" ?>
<!DOCTYPE svg PUBLIC "-//W3C//DTD SVG 1.1//EN" "http://www.w3.org/Graphics/SVG/1.1/DTD/svg11.dtd">
<svg width="640pt" height="640pt" viewBox="0 0 640 640" version="1.1" xmlns="http://www.w3.org/2000/svg">
<path fill="#181919" stroke="#181919" stroke-width="0.09375" opacity="1.00" d=" M 291.29 59.91 C 294.93 62.86 298.05 66.39 301.37 69.68 C 311.00 79.42 318.89 90.93 329.78 99.37 C 331.82 99.96 333.98 99.92 336.09 100.14 C 357.69 101.97 379.51 104.62 400.00 112.09 C 416.73 118.11 432.27 127.58 445.01 140.02 C 461.93 156.42 473.83 177.19 483.52 198.47 C 496.63 227.70 505.76 258.62 511.90 290.03 C 516.77 315.64 519.78 341.80 518.19 367.89 C 517.06 386.52 512.88 405.05 504.98 422.00 C 497.85 437.61 487.58 451.52 476.72 464.72 C 472.10 470.50 466.79 475.95 463.83 482.84 C 462.21 486.63 462.44 490.81 462.40 494.84 C 470.89 495.67 479.96 496.68 487.14 501.72 C 493.15 505.99 496.79 512.70 499.60 519.34 C 503.79 534.28 504.68 549.87 506.94 565.16 C 470.21 570.94 433.09 573.91 395.96 575.11 C 382.31 575.83 368.65 576.16 354.97 576.00 C 323.97 576.07 292.96 575.99 261.95 576.00 C 232.14 574.55 202.22 574.55 172.47 571.74 C 158.21 570.49 143.87 569.10 130.08 565.08 C 132.32 549.82 133.22 534.26 137.40 519.35 C 140.36 512.54 143.91 505.45 150.40 501.35 C 157.93 496.50 167.22 495.27 176.00 494.95 C 175.95 482.29 175.78 469.54 177.90 457.02 C 179.98 444.18 184.85 431.83 191.96 420.94 C 205.51 400.62 224.00 384.36 241.03 367.08 C 251.82 356.06 262.87 344.84 270.00 330.99 C 274.31 322.78 276.83 313.76 278.25 304.63 C 263.69 308.77 248.72 311.19 233.83 313.76 C 227.66 314.60 222.16 317.77 216.87 320.86 C 207.95 326.14 202.98 335.72 195.04 342.12 C 189.71 346.43 182.80 348.26 176.04 348.49 C 168.39 348.49 160.60 349.04 153.15 346.86 C 155.84 342.13 156.89 336.72 158.42 331.56 C 159.33 327.10 161.07 322.20 159.32 317.77 C 155.87 314.39 150.41 314.75 145.96 315.25 C 136.47 316.60 129.35 323.49 122.09 329.11 C 114.52 322.65 107.09 315.76 101.67 307.33 C 97.84 301.39 95.61 294.14 96.83 287.07 C 98.00 279.41 102.52 272.92 106.47 266.47 C 114.16 253.87 122.66 241.64 133.26 231.30 C 147.02 217.55 164.05 207.88 180.09 197.12 C 191.23 189.57 202.60 181.79 210.86 170.98 C 218.68 160.85 223.19 148.65 226.57 136.42 C 226.83 135.10 227.35 133.65 226.78 132.34 C 223.73 130.08 220.38 128.27 217.26 126.11 C 222.48 110.48 225.16 93.56 234.70 79.76 C 237.28 75.96 240.24 72.43 243.06 68.80 C 252.41 74.97 260.65 82.66 269.05 90.03 C 273.88 78.32 282.06 68.43 291.29 59.91 M 291.48 81.64 C 285.79 89.32 281.87 98.14 279.22 107.28 C 274.82 116.26 268.92 124.85 260.62 130.66 C 255.11 134.89 248.42 137.13 241.74 138.75 C 237.83 153.62 232.26 168.38 222.72 180.61 C 213.89 192.18 201.91 200.76 189.98 208.86 C 176.11 218.30 161.38 226.63 148.72 237.73 C 134.03 250.56 123.50 267.24 113.84 283.98 C 111.36 288.09 111.30 293.29 113.48 297.54 C 116.19 301.71 119.22 305.70 122.88 309.08 C 134.49 300.44 150.76 296.33 164.34 302.68 C 170.71 305.56 174.60 312.04 175.35 318.85 C 175.25 323.64 174.90 328.43 173.90 333.12 C 178.06 333.13 182.62 332.73 185.87 329.82 C 191.86 324.50 196.17 317.53 202.42 312.47 C 208.03 307.68 214.70 304.42 221.32 301.27 C 223.20 300.38 225.21 299.78 227.26 299.38 C 241.20 296.84 255.25 294.78 268.99 291.27 C 277.53 289.00 286.46 286.23 292.86 279.81 C 299.79 273.13 306.74 266.34 312.27 258.43 C 316.02 252.42 319.97 246.55 323.79 240.59 C 324.61 240.06 325.41 239.51 326.19 238.92 C 329.14 241.54 330.48 245.33 332.26 248.74 C 331.94 250.84 331.81 253.00 331.11 255.02 C 324.58 270.67 311.64 282.21 299.47 293.50 C 297.60 295.47 294.67 297.01 294.31 299.95 C 293.68 304.69 293.04 309.42 292.12 314.12 C 289.42 326.22 284.65 337.90 277.51 348.09 L 277.48 348.44 C 260.79 371.76 238.19 389.86 219.17 411.14 C 209.09 422.12 199.90 434.45 195.55 448.91 C 190.50 464.28 191.86 480.60 191.19 496.50 C 195.30 496.75 199.37 497.32 203.44 497.94 C 219.75 499.22 236.02 501.26 252.41 501.32 C 263.60 502.25 274.83 501.85 286.04 502.46 C 326.12 502.38 366.27 503.19 406.27 500.09 C 419.85 499.06 433.41 497.69 446.92 495.95 C 446.92 490.24 446.99 484.41 448.89 478.95 C 452.12 469.77 458.66 462.28 464.85 454.95 C 472.42 445.64 479.86 436.14 485.78 425.67 C 494.03 411.48 499.27 395.62 501.58 379.39 C 504.83 357.73 503.25 335.72 500.38 314.12 C 499.73 309.89 499.43 305.57 498.03 301.51 C 498.40 300.10 497.85 298.63 497.72 297.22 C 491.83 265.68 482.89 234.61 469.82 205.27 C 460.72 185.29 449.73 165.64 433.70 150.35 C 420.90 138.00 404.89 129.26 387.91 124.16 C 368.42 118.26 348.04 116.44 327.84 114.79 C 325.97 114.62 324.15 114.16 322.31 113.81 C 319.25 110.14 315.28 107.40 311.99 103.96 C 304.63 97.00 298.72 88.69 291.48 81.64 M 245.13 89.79 C 239.36 98.93 237.64 109.85 233.04 119.54 C 236.29 120.78 239.15 123.97 242.91 122.81 C 247.70 120.48 252.97 118.68 256.72 114.72 C 259.47 112.15 261.39 108.88 263.00 105.51 C 264.52 102.40 260.98 101.49 259.02 100.15 C 254.09 97.34 250.70 92.54 245.93 89.55 L 245.13 89.79 M 163.15 512.13 C 157.28 513.36 154.62 519.36 152.46 524.31 C 149.50 533.39 148.22 542.94 147.11 552.40 C 151.41 552.80 155.69 553.44 159.97 553.98 C 179.59 556.32 199.28 557.92 219.01 558.96 C 245.55 560.20 272.12 561.63 298.69 560.77 C 307.12 561.18 315.58 560.90 324.02 560.99 C 343.01 560.87 362.01 561.35 380.97 560.51 C 417.35 559.35 453.81 557.45 489.86 552.18 C 488.66 542.61 487.35 532.96 484.36 523.76 C 482.47 519.38 480.16 514.26 475.27 512.63 C 470.66 510.99 465.74 510.39 460.86 510.43 C 458.62 510.42 456.38 510.42 454.16 510.69 C 433.17 513.23 412.11 515.32 390.99 516.45 C 362.37 518.03 333.70 517.65 305.05 517.71 C 280.05 517.61 255.01 517.71 230.09 515.42 C 217.66 514.60 205.29 512.95 192.91 511.94 C 183.19 509.89 172.80 509.61 163.15 512.13 Z" />
<path fill="#707575" stroke="#707575" stroke-width="0.09375" opacity="1.00" d=" M 291.48 81.64 C 298.72 88.69 304.63 97.00 311.99 103.96 C 315.28 107.40 319.25 110.14 322.31 113.81 C 310.31 112.31 302.53 101.87 292.29 96.66 C 289.27 104.84 287.97 113.73 283.26 121.22 C 277.59 130.59 268.00 136.61 258.55 141.65 C 254.68 143.83 250.37 145.19 246.70 147.71 C 245.12 150.38 244.49 153.47 243.44 156.37 C 239.07 169.06 233.48 181.52 225.19 192.16 C 218.20 201.51 208.81 208.70 199.21 215.18 C 184.62 224.85 169.01 233.16 155.83 244.82 C 143.43 255.90 133.25 269.18 123.80 282.79 C 120.35 287.70 117.29 292.89 113.48 297.54 C 111.30 293.29 111.36 288.09 113.84 283.98 C 123.50 267.24 134.03 250.56 148.72 237.73 C 161.38 226.63 176.11 218.30 189.98 208.86 C 201.91 200.76 213.89 192.18 222.72 180.61 C 232.26 168.38 237.83 153.62 241.74 138.75 C 248.42 137.13 255.11 134.89 260.62 130.66 C 268.92 124.85 274.82 116.26 279.22 107.28 C 281.87 98.14 285.79 89.32 291.48 81.64 Z" />
<path fill="#707575" stroke="#707575" stroke-width="0.09375" opacity="1.00" d=" M 245.13 89.79 L 245.93 89.55 C 250.70 92.54 254.09 97.34 259.02 100.15 C 260.98 101.49 264.52 102.40 263.00 105.51 C 258.14 103.72 253.46 101.49 248.68 99.49 C 245.33 105.72 242.56 112.26 239.86 118.79 C 240.91 120.11 241.95 121.43 242.91 122.81 C 239.15 123.97 236.29 120.78 233.04 119.54 C 237.64 109.85 239.36 98.93 245.13 89.79 Z" />
<path fill="#4f5454" stroke="#4f5454" stroke-width="0.09375" opacity="1.00" d=" M 292.29 96.66 C 302.53 101.87 310.31 112.31 322.31 113.81 C 324.15 114.16 325.97 114.62 327.84 114.79 C 348.04 116.44 368.42 118.26 387.91 124.16 C 404.89 129.26 420.90 138.00 433.70 150.35 C 449.73 165.64 460.72 185.29 469.82 205.27 C 482.89 234.61 491.83 265.68 497.72 297.22 C 497.85 298.63 498.40 300.10 498.03 301.51 C 492.37 317.44 486.65 333.36 481.30 349.40 C 474.56 369.11 465.23 387.99 452.89 404.81 C 444.76 416.89 435.57 428.21 427.05 440.01 C 419.65 450.42 413.28 461.81 410.38 474.35 C 408.06 482.76 407.37 491.47 406.27 500.09 C 366.27 503.19 326.12 502.38 286.04 502.46 C 274.83 501.85 263.60 502.25 252.41 501.32 C 236.02 501.26 219.75 499.22 203.44 497.94 C 203.44 487.64 202.44 477.29 203.91 467.03 C 205.23 455.08 209.94 443.65 217.02 433.96 C 229.78 416.31 246.16 401.70 259.49 384.52 C 266.73 375.17 272.39 364.66 276.53 353.59 C 277.14 351.94 277.36 350.18 277.48 348.44 L 277.51 348.09 C 284.65 337.90 289.42 326.22 292.12 314.12 C 308.45 304.08 324.63 291.68 332.92 273.90 C 336.77 265.97 336.79 256.40 332.26 248.74 C 330.48 245.33 329.14 241.54 326.19 238.92 C 325.41 239.51 324.61 240.06 323.79 240.59 C 319.59 242.78 315.12 244.50 311.24 247.25 C 302.47 253.34 296.47 262.52 287.99 268.95 C 281.63 273.11 274.70 276.66 267.19 278.14 C 253.88 281.05 240.57 284.02 227.04 285.69 C 220.24 286.42 213.88 289.31 208.52 293.48 C 197.11 302.21 186.83 312.29 176.19 321.91 C 175.90 320.89 175.61 319.87 175.35 318.85 C 174.60 312.04 170.71 305.56 164.34 302.68 C 150.76 296.33 134.49 300.44 122.88 309.08 C 119.22 305.70 116.19 301.71 113.48 297.54 C 117.29 292.89 120.35 287.70 123.80 282.79 C 133.25 269.18 143.43 255.90 155.83 244.82 C 169.01 233.16 184.62 224.85 199.21 215.18 C 208.81 208.70 218.20 201.51 225.19 192.16 C 233.48 181.52 239.07 169.06 243.44 156.37 C 244.49 153.47 245.12 150.38 246.70 147.71 C 250.37 145.19 254.68 143.83 258.55 141.65 C 268.00 136.61 277.59 130.59 283.26 121.22 C 287.97 113.73 289.27 104.84 292.29 96.66 M 253.32 165.31 C 249.88 168.85 246.61 173.84 248.25 178.97 C 249.60 184.46 255.57 188.17 261.09 186.96 C 266.97 185.84 272.89 184.17 277.99 180.96 C 283.03 177.72 284.24 170.18 280.65 165.44 C 277.11 160.58 273.35 155.89 269.79 151.04 C 264.15 155.62 258.41 160.12 253.32 165.31 M 146.16 266.27 C 141.72 268.14 138.75 272.31 136.33 276.32 C 134.32 279.75 135.82 283.80 137.13 287.19 C 141.49 287.59 145.41 285.40 149.01 283.24 C 151.08 281.96 153.33 280.75 154.78 278.72 C 159.08 273.38 152.71 264.07 146.16 266.27 Z" />
<path fill="#4f5454" stroke="#4f5454" stroke-width="0.09375" opacity="1.00" d=" M 239.86 118.79 C 242.56 112.26 245.33 105.72 248.68 99.49 C 253.46 101.49 258.14 103.72 263.00 105.51 C 261.39 108.88 259.47 112.15 256.72 114.72 C 252.97 118.68 247.70 120.48 242.91 122.81 C 241.95 121.43 240.91 120.11 239.86 118.79 Z" />
<path fill="#101111" stroke="#101111" stroke-width="0.09375" opacity="1.00" d=" M 253.32 165.31 C 258.41 160.12 264.15 155.62 269.79 151.04 C 273.35 155.89 277.11 160.58 280.65 165.44 C 284.24 170.18 283.03 177.72 277.99 180.96 C 272.89 184.17 266.97 185.84 261.09 186.96 C 255.57 188.17 249.60 184.46 248.25 178.97 C 246.61 173.84 249.88 168.85 253.32 165.31 Z" />
<path fill="#414444" stroke="#414444" stroke-width="0.09375" opacity="1.00" d=" M 311.24 247.25 C 315.12 244.50 319.59 242.78 323.79 240.59 C 319.97 246.55 316.02 252.42 312.27 258.43 C 306.74 266.34 299.79 273.13 292.86 279.81 C 286.46 286.23 277.53 289.00 268.99 291.27 C 255.25 294.78 241.20 296.84 227.26 299.38 C 225.21 299.78 223.20 300.38 221.32 301.27 C 214.70 304.42 208.03 307.68 202.42 312.47 C 196.17 317.53 191.86 324.50 185.87 329.82 C 182.62 332.73 178.06 333.13 173.90 333.12 C 174.90 328.43 175.25 323.64 175.35 318.85 C 175.61 319.87 175.90 320.89 176.19 321.91 C 186.83 312.29 197.11 302.21 208.52 293.48 C 213.88 289.31 220.24 286.42 227.04 285.69 C 240.57 284.02 253.88 281.05 267.19 278.14 C 274.70 276.66 281.63 273.11 287.99 268.95 C 296.47 262.52 302.47 253.34 311.24 247.25 Z" />
<path fill="#414444" stroke="#414444" stroke-width="0.09375" opacity="1.00" d=" M 332.26 248.74 C 336.79 256.40 336.77 265.97 332.92 273.90 C 324.63 291.68 308.45 304.08 292.12 314.12 C 293.04 309.42 293.68 304.69 294.31 299.95 C 294.67 297.01 297.60 295.47 299.47 293.50 C 311.64 282.21 324.58 270.67 331.11 255.02 C 331.81 253.00 331.94 250.84 332.26 248.74 Z" />
<path fill="#101111" stroke="#101111" stroke-width="0.09375" opacity="1.00" d=" M 146.16 266.27 C 152.71 264.07 159.08 273.38 154.78 278.72 C 153.33 280.75 151.08 281.96 149.01 283.24 C 145.41 285.40 141.49 287.59 137.13 287.19 C 135.82 283.80 134.32 279.75 136.33 276.32 C 138.75 272.31 141.72 268.14 146.16 266.27 Z" />
<path fill="#414444" stroke="#414444" stroke-width="0.09375" opacity="1.00" d=" M 481.30 349.40 C 486.65 333.36 492.37 317.44 498.03 301.51 C 499.43 305.57 499.73 309.89 500.38 314.12 C 503.25 335.72 504.83 357.73 501.58 379.39 C 499.27 395.62 494.03 411.48 485.78 425.67 C 479.86 436.14 472.42 445.64 464.85 454.95 C 458.66 462.28 452.12 469.77 448.89 478.95 C 446.99 484.41 446.92 490.24 446.92 495.95 C 433.41 497.69 419.85 499.06 406.27 500.09 C 407.37 491.47 408.06 482.76 410.38 474.35 C 413.28 461.81 419.65 450.42 427.05 440.01 C 435.57 428.21 444.76 416.89 452.89 404.81 C 465.23 387.99 474.56 369.11 481.30 349.40 Z" />
<path fill="#707575" stroke="#707575" stroke-width="0.09375" opacity="1.00" d=" M 277.48 348.44 C 277.36 350.18 277.14 351.94 276.53 353.59 C 272.39 364.66 266.73 375.17 259.49 384.52 C 246.16 401.70 229.78 416.31 217.02 433.96 C 209.94 443.65 205.23 455.08 203.91 467.03 C 202.44 477.29 203.44 487.64 203.44 497.94 C 199.37 497.32 195.30 496.75 191.19 496.50 C 191.86 480.60 190.50 464.28 195.55 448.91 C 199.90 434.45 209.09 422.12 219.17 411.14 C 238.19 389.86 260.79 371.76 277.48 348.44 Z" />
<path fill="#707575" stroke="#707575" stroke-width="0.09375" opacity="1.00" d=" M 163.15 512.13 C 172.80 509.61 183.19 509.89 192.91 511.94 C 184.76 515.24 175.20 517.18 169.70 524.71 C 163.71 533.26 161.24 543.76 159.97 553.98 C 155.69 553.44 151.41 552.80 147.11 552.40 C 148.22 542.94 149.50 533.39 152.46 524.31 C 154.62 519.36 157.28 513.36 163.15 512.13 Z" />
<path fill="#4f5454" stroke="#4f5454" stroke-width="0.09375" opacity="1.00" d=" M 390.99 516.45 C 412.11 515.32 433.17 513.23 454.16 510.69 C 456.38 510.42 458.62 510.42 460.86 510.43 C 465.74 519.15 469.68 528.64 470.89 538.63 C 423.93 545.00 377.29 553.90 330.04 557.96 C 319.58 558.81 309.14 559.89 298.69 560.77 C 272.12 561.63 245.55 560.20 219.01 558.96 C 199.28 557.92 179.59 556.32 159.97 553.98 C 161.24 543.76 163.71 533.26 169.70 524.71 C 175.20 517.18 184.76 515.24 192.91 511.94 C 205.29 512.95 217.66 514.60 230.09 515.42 C 255.01 517.71 280.05 517.61 305.05 517.71 C 333.70 517.65 362.37 518.03 390.99 516.45 Z" />
<path fill="#414444" stroke="#414444" stroke-width="0.09375" opacity="1.00" d=" M 460.86 510.43 C 465.74 510.39 470.66 510.99 475.27 512.63 C 480.16 514.26 482.47 519.38 484.36 523.76 C 487.35 532.96 488.66 542.61 489.86 552.18 C 453.81 557.45 417.35 559.35 380.97 560.51 C 362.01 561.35 343.01 560.87 324.02 560.99 C 315.58 560.90 307.12 561.18 298.69 560.77 C 309.14 559.89 319.58 558.81 330.04 557.96 C 377.29 553.90 423.93 545.00 470.89 538.63 C 469.68 528.64 465.74 519.15 460.86 510.43 Z" />
</svg>
