<?xml version="1.0" encoding="UTF-8" ?>
<!DOCTYPE svg PUBLIC "-//W3C//DTD SVG 1.1//EN" "http://www.w3.org/Graphics/SVG/1.1/DTD/svg11.dtd">
<svg width="640pt" height="640pt" viewBox="0 0 640 640" version="1.1" xmlns="http://www.w3.org/2000/svg">
<path fill="#181919" stroke="#181919" stroke-width="0.09375" opacity="1.00" d=" M 301.91 116.20 C 322.40 112.27 343.87 117.22 361.95 127.18 C 391.94 143.64 412.25 176.64 412.45 210.96 C 411.63 227.03 406.72 242.80 398.50 256.62 C 392.35 268.70 382.55 278.27 373.40 288.07 C 374.91 292.05 378.02 295.41 381.92 297.14 C 393.98 302.69 406.15 307.99 417.91 314.16 C 422.94 316.91 428.06 319.71 432.22 323.72 C 434.98 326.36 437.01 330.09 436.52 334.01 C 436.12 339.35 431.35 343.00 426.68 344.72 C 417.84 348.01 408.34 348.82 399.04 349.93 C 386.82 350.77 374.61 352.05 362.37 351.99 C 363.97 371.11 365.49 390.30 369.32 409.14 C 371.85 420.84 375.15 432.83 382.46 442.54 C 388.12 450.20 395.85 455.96 403.65 461.28 C 410.07 465.70 416.93 470.19 420.82 477.18 C 424.49 483.44 425.16 490.93 424.53 498.03 C 432.51 497.33 440.69 498.84 447.99 502.11 C 456.18 506.08 461.23 514.23 464.41 522.45 C 467.94 537.14 469.41 552.21 471.32 567.18 C 459.22 568.92 447.12 570.64 434.96 571.96 C 425.32 572.96 415.68 574.31 405.97 574.03 C 366.69 576.34 327.32 575.29 288.00 575.50 C 264.28 575.96 240.61 574.45 216.93 573.84 C 198.44 572.28 180.04 569.86 161.68 567.18 C 163.59 552.19 165.06 537.09 168.61 522.38 C 171.88 513.96 177.16 505.59 185.70 501.78 C 192.85 498.78 200.74 497.36 208.48 498.00 C 207.76 490.46 208.67 482.46 212.89 475.99 C 217.96 468.01 226.56 463.50 233.97 458.04 C 241.50 452.70 248.54 446.36 253.36 438.39 C 258.86 429.28 261.62 418.84 263.81 408.52 C 267.54 389.88 269.05 370.90 270.64 351.99 C 268.07 351.99 265.51 352.06 262.95 351.98 C 246.27 350.66 229.38 350.43 212.98 346.75 C 207.77 345.45 202.09 343.80 198.62 339.40 C 195.66 335.73 195.77 330.17 198.51 326.41 C 202.04 321.51 207.47 318.49 212.59 315.52 C 225.31 308.58 238.67 302.91 251.80 296.79 C 255.37 295.00 258.18 291.80 259.60 288.08 C 250.45 278.27 240.63 268.69 234.48 256.59 C 225.98 242.23 220.93 225.76 220.52 209.05 C 221.37 186.70 230.23 164.79 245.10 148.09 C 259.73 131.47 280.08 119.97 301.91 116.20 M 248.61 167.54 C 240.96 179.64 236.37 193.73 235.78 208.05 C 235.91 225.79 243.23 242.65 252.70 257.34 C 257.24 262.81 261.28 269.26 267.67 272.74 L 267.74 273.10 C 272.12 274.70 276.63 275.98 281.27 276.59 C 296.75 278.71 312.41 278.63 328.00 278.42 C 339.40 277.78 351.08 277.73 362.06 274.20 C 368.70 272.20 373.07 266.43 377.10 261.16 C 382.68 255.22 386.02 247.65 389.48 240.37 C 392.58 233.91 394.80 227.03 396.04 219.97 C 399.21 204.31 395.09 188.02 388.05 173.97 C 383.77 166.14 378.82 158.28 371.80 152.64 C 370.24 150.13 367.72 148.40 365.48 146.53 C 351.93 135.75 335.00 129.37 317.72 128.45 C 290.03 128.69 263.24 144.11 248.61 167.54 M 274.45 290.92 C 273.07 297.07 269.31 302.46 264.49 306.45 C 259.38 310.90 252.81 312.99 246.81 315.91 C 236.20 321.01 225.13 325.29 215.21 331.70 C 225.63 334.14 236.35 334.99 247.03 335.11 C 266.33 336.27 285.67 336.11 305.00 336.09 C 317.83 335.97 330.67 336.34 343.49 335.89 C 351.48 336.42 359.65 336.18 367.66 335.60 C 384.29 335.18 401.16 335.50 417.46 331.72 C 411.69 327.41 404.89 324.85 398.54 321.55 C 390.02 317.69 381.46 313.92 373.05 309.84 C 366.14 305.66 360.45 298.98 358.54 291.01 C 354.09 291.65 349.64 292.29 345.16 292.64 C 325.23 294.32 305.15 294.13 285.22 292.49 C 281.62 292.00 278.03 291.51 274.45 290.92 M 285.75 351.44 C 283.98 372.09 282.42 392.83 278.17 413.15 C 275.43 425.77 271.60 438.46 264.22 449.21 C 258.62 457.48 251.08 464.24 243.00 470.02 C 237.54 474.19 231.23 477.40 226.63 482.59 C 222.61 487.21 223.06 493.68 223.69 499.35 C 227.98 499.92 232.30 500.09 236.62 500.41 C 245.26 500.79 253.94 501.29 262.57 501.17 C 269.69 501.79 276.85 501.76 283.99 502.00 C 325.75 501.85 367.61 502.86 409.26 499.33 C 409.77 494.79 410.26 489.97 408.36 485.67 C 406.66 481.64 402.87 479.14 399.48 476.65 C 390.87 470.68 382.03 464.81 374.96 456.97 C 366.05 447.49 360.57 435.35 357.21 422.91 C 350.92 399.64 349.46 375.47 347.19 351.58 C 336.45 351.30 325.71 351.50 314.97 351.44 C 305.24 350.89 295.49 351.29 285.75 351.44 M 190.45 516.49 C 187.03 519.39 184.98 523.68 183.56 527.87 C 181.03 536.50 179.76 545.43 178.53 554.31 C 181.05 554.59 183.55 555.04 186.08 555.29 C 206.02 557.93 226.19 559.52 246.30 559.24 C 249.09 560.28 252.10 560.00 255.02 560.00 C 260.35 559.87 265.65 560.66 270.99 560.51 C 301.64 560.47 332.30 560.46 362.95 560.51 C 393.47 559.45 424.13 558.99 454.38 554.26 C 453.41 546.10 452.06 537.95 450.02 529.98 C 448.86 525.38 446.79 520.93 443.58 517.41 C 440.05 514.37 435.15 513.68 430.67 513.28 C 414.41 514.10 398.18 515.50 381.92 516.18 C 366.96 517.18 351.96 516.97 336.99 517.21 C 306.65 517.04 276.27 517.74 245.97 515.92 C 236.87 515.74 227.82 514.53 218.74 514.30 C 209.34 514.01 199.04 511.28 190.45 516.49 Z" />
<path fill="#707575" stroke="#707575" stroke-width="0.09375" opacity="1.00" d=" M 248.61 167.54 C 263.24 144.11 290.03 128.69 317.72 128.45 C 301.30 140.51 283.72 151.62 270.70 167.58 C 260.56 179.76 254.03 195.07 253.23 210.97 C 252.17 227.55 256.97 243.79 262.79 259.12 C 264.41 263.66 266.83 267.95 267.67 272.74 C 261.28 269.26 257.24 262.81 252.70 257.34 C 243.23 242.65 235.91 225.79 235.78 208.05 C 236.37 193.73 240.96 179.64 248.61 167.54 Z" />
<path fill="#4f5454" stroke="#4f5454" stroke-width="0.09375" opacity="1.00" d=" M 317.72 128.45 C 335.00 129.37 351.93 135.75 365.48 146.53 C 367.72 148.40 370.24 150.13 371.80 152.64 C 372.61 155.30 373.35 157.99 374.42 160.56 C 380.19 174.11 385.23 188.20 386.85 202.92 C 388.84 222.87 382.33 242.20 377.10 261.16 C 373.07 266.43 368.70 272.20 362.06 274.20 C 351.08 277.73 339.40 277.78 328.00 278.42 C 312.41 278.63 296.75 278.71 281.27 276.59 C 276.63 275.98 272.12 274.70 267.74 273.10 L 267.67 272.74 C 266.83 267.95 264.41 263.66 262.79 259.12 C 256.97 243.79 252.17 227.55 253.23 210.97 C 254.03 195.07 260.56 179.76 270.70 167.58 C 283.72 151.62 301.30 140.51 317.72 128.45 Z" />
<path fill="#414444" stroke="#414444" stroke-width="0.09375" opacity="1.00" d=" M 371.80 152.64 C 378.82 158.28 383.77 166.14 388.05 173.97 C 395.09 188.02 399.21 204.31 396.04 219.97 C 394.80 227.03 392.58 233.91 389.48 240.37 C 386.02 247.65 382.68 255.22 377.10 261.16 C 382.33 242.20 388.84 222.87 386.85 202.92 C 385.23 188.20 380.19 174.11 374.42 160.56 C 373.35 157.99 372.61 155.30 371.80 152.64 Z" />
<path fill="#707575" stroke="#707575" stroke-width="0.09375" opacity="1.00" d=" M 274.45 290.92 C 278.03 291.51 281.62 292.00 285.22 292.49 C 282.73 299.58 279.41 306.63 273.72 311.73 C 266.78 317.92 258.55 322.42 250.43 326.85 C 276.87 329.50 303.47 330.01 329.89 332.94 C 334.45 333.67 339.58 332.95 343.49 335.89 C 330.67 336.34 317.83 335.97 305.00 336.09 C 285.67 336.11 266.33 336.27 247.03 335.11 C 236.35 334.99 225.63 334.14 215.21 331.70 C 225.13 325.29 236.20 321.01 246.81 315.91 C 252.81 312.99 259.38 310.90 264.49 306.45 C 269.31 302.46 273.07 297.07 274.45 290.92 Z" />
<path fill="#414444" stroke="#414444" stroke-width="0.09375" opacity="1.00" d=" M 345.16 292.64 C 349.64 292.29 354.09 291.65 358.54 291.01 C 360.45 298.98 366.14 305.66 373.05 309.84 C 381.46 313.92 390.02 317.69 398.54 321.55 C 404.89 324.85 411.69 327.41 417.46 331.72 C 401.16 335.50 384.29 335.18 367.66 335.60 C 375.69 332.95 384.14 331.66 391.96 328.35 C 378.31 320.71 361.33 316.46 352.34 302.62 C 349.78 299.44 349.53 293.96 345.16 292.64 Z" />
<path fill="#4f5454" stroke="#4f5454" stroke-width="0.09375" opacity="1.00" d=" M 285.22 292.49 C 305.15 294.13 325.23 294.32 345.16 292.64 C 349.53 293.96 349.78 299.44 352.34 302.62 C 361.33 316.46 378.31 320.71 391.96 328.35 C 384.14 331.66 375.69 332.95 367.66 335.60 C 359.65 336.18 351.48 336.42 343.49 335.89 C 339.58 332.95 334.45 333.67 329.89 332.94 C 303.47 330.01 276.87 329.50 250.43 326.85 C 258.55 322.42 266.78 317.92 273.72 311.73 C 279.41 306.63 282.73 299.58 285.22 292.49 Z" />
<path fill="#4f5454" stroke="#4f5454" stroke-width="0.09375" opacity="1.00" d=" M 285.75 351.44 C 295.49 351.29 305.24 350.89 314.97 351.44 C 325.71 351.50 336.45 351.30 347.19 351.58 C 346.39 351.80 344.79 352.25 343.99 352.47 C 343.25 355.95 342.99 359.51 342.98 363.07 C 342.89 371.70 342.03 380.31 342.17 388.94 C 342.56 403.80 343.54 418.82 347.84 433.13 C 352.07 448.19 360.30 461.60 367.67 475.25 C 369.79 479.64 372.64 483.97 372.96 488.96 C 373.27 492.41 369.21 493.23 366.61 493.56 C 348.49 495.30 330.28 495.52 312.11 496.42 C 295.58 497.58 278.86 497.86 262.57 501.17 C 253.94 501.29 245.26 500.79 236.62 500.41 C 236.93 496.96 236.93 493.12 239.37 490.37 C 243.14 485.97 248.51 483.45 253.17 480.15 C 263.93 473.11 273.40 463.83 279.52 452.43 C 286.71 439.12 289.90 424.13 292.47 409.35 C 295.60 390.98 296.87 372.38 298.77 353.87 C 301.29 353.30 303.82 352.72 306.34 352.14 C 299.50 351.31 292.61 351.86 285.75 351.44 Z" />
<path fill="#707575" stroke="#707575" stroke-width="0.09375" opacity="1.00" d=" M 278.17 413.15 C 282.42 392.83 283.98 372.09 285.75 351.44 C 292.61 351.86 299.50 351.31 306.34 352.14 C 303.82 352.72 301.29 353.30 298.77 353.87 C 296.87 372.38 295.60 390.98 292.47 409.35 C 289.90 424.13 286.71 439.12 279.52 452.43 C 273.40 463.83 263.93 473.11 253.17 480.15 C 248.51 483.45 243.14 485.97 239.37 490.37 C 236.93 493.12 236.93 496.96 236.62 500.41 C 232.30 500.09 227.98 499.92 223.69 499.35 C 223.06 493.68 222.61 487.21 226.63 482.59 C 231.23 477.40 237.54 474.19 243.00 470.02 C 251.08 464.24 258.62 457.48 264.22 449.21 C 271.60 438.46 275.43 425.77 278.17 413.15 Z" />
<path fill="#414444" stroke="#414444" stroke-width="0.09375" opacity="1.00" d=" M 343.99 352.47 C 344.79 352.25 346.39 351.80 347.19 351.58 C 349.46 375.47 350.92 399.64 357.21 422.91 C 360.57 435.35 366.05 447.49 374.96 456.97 C 382.03 464.81 390.87 470.68 399.48 476.65 C 402.87 479.14 406.66 481.64 408.36 485.67 C 410.26 489.97 409.77 494.79 409.26 499.33 C 367.61 502.86 325.75 501.85 283.99 502.00 C 276.85 501.76 269.69 501.79 262.57 501.17 C 278.86 497.86 295.58 497.58 312.11 496.42 C 330.28 495.52 348.49 495.30 366.61 493.56 C 369.21 493.23 373.27 492.41 372.96 488.96 C 372.64 483.97 369.79 479.64 367.67 475.25 C 360.30 461.60 352.07 448.19 347.84 433.13 C 343.54 418.82 342.56 403.80 342.17 388.94 C 342.03 380.31 342.89 371.70 342.98 363.07 C 342.99 359.51 343.25 355.95 343.99 352.47 Z" />
<path fill="#707575" stroke="#707575" stroke-width="0.09375" opacity="1.00" d=" M 190.45 516.49 C 199.04 511.28 209.34 514.01 218.74 514.30 C 212.52 517.17 205.52 519.61 201.44 525.47 C 195.30 534.30 193.40 545.09 189.78 555.02 C 188.55 555.13 187.31 555.22 186.08 555.29 C 183.55 555.04 181.05 554.59 178.53 554.31 C 179.76 545.43 181.03 536.50 183.56 527.87 C 184.98 523.68 187.03 519.39 190.45 516.49 Z" />
<path fill="#4f5454" stroke="#4f5454" stroke-width="0.09375" opacity="1.00" d=" M 218.74 514.30 C 227.82 514.53 236.87 515.74 245.97 515.92 C 276.27 517.74 306.65 517.04 336.99 517.21 C 351.96 516.97 366.96 517.18 381.92 516.18 C 398.18 515.50 414.41 514.10 430.67 513.28 C 433.58 522.27 438.12 531.31 436.98 541.01 C 436.26 545.96 430.39 546.73 426.41 547.54 C 403.13 551.21 379.47 551.11 356.00 552.65 C 321.31 554.26 286.64 556.40 251.96 558.18 C 250.04 558.37 248.18 558.84 246.30 559.24 C 226.19 559.52 206.02 557.93 186.08 555.29 C 187.31 555.22 188.55 555.13 189.78 555.02 C 193.40 545.09 195.30 534.30 201.44 525.47 C 205.52 519.61 212.52 517.17 218.74 514.30 Z" />
<path fill="#414444" stroke="#414444" stroke-width="0.09375" opacity="1.00" d=" M 430.67 513.28 C 435.15 513.68 440.05 514.37 443.58 517.41 C 446.79 520.93 448.86 525.38 450.02 529.98 C 452.06 537.95 453.41 546.10 454.38 554.26 C 424.13 558.99 393.47 559.45 362.95 560.51 C 332.30 560.46 301.64 560.47 270.99 560.51 C 265.65 560.66 260.35 559.87 255.02 560.00 C 252.10 560.00 249.09 560.28 246.30 559.24 C 248.18 558.84 250.04 558.37 251.96 558.18 C 286.64 556.40 321.31 554.26 356.00 552.65 C 379.47 551.11 403.13 551.21 426.41 547.54 C 430.39 546.73 436.26 545.96 436.98 541.01 C 438.12 531.31 433.58 522.27 430.67 513.28 Z" />
</svg>
