<?xml version="1.0" encoding="UTF-8" ?>
<!DOCTYPE svg PUBLIC "-//W3C//DTD SVG 1.1//EN" "http://www.w3.org/Graphics/SVG/1.1/DTD/svg11.dtd">
<svg width="640pt" height="640pt" viewBox="0 0 640 640" version="1.1" xmlns="http://www.w3.org/2000/svg">
<path fill="#181919" stroke="#181919" stroke-width="0.09375" opacity="1.00" d=" M 277.30 59.29 C 289.55 46.87 307.54 39.67 325.02 42.05 C 339.34 44.29 352.82 51.79 362.06 63.00 C 370.61 72.97 375.57 85.89 376.11 99.00 C 376.48 113.42 371.04 127.70 361.80 138.71 C 379.26 141.71 396.83 146.21 412.17 155.35 C 418.49 151.29 424.39 146.58 430.97 142.94 C 435.47 140.47 441.01 138.90 445.97 140.94 C 451.25 142.94 454.17 148.34 455.54 153.52 C 458.02 163.87 460.63 174.26 464.81 184.07 C 467.16 189.29 470.01 194.72 474.95 197.93 C 480.22 201.11 486.66 200.76 492.58 200.41 C 503.93 199.17 515.11 196.67 526.06 193.46 C 533.23 191.70 540.44 189.06 547.93 189.63 C 555.74 190.35 562.20 195.27 568.30 199.77 C 569.44 200.40 570.44 202.10 569.30 203.22 C 545.58 235.69 521.57 268.01 499.76 301.82 C 488.02 320.40 476.57 339.23 467.10 359.09 C 460.25 373.59 454.02 388.51 450.25 404.13 C 446.15 423.77 447.17 444.06 448.90 463.92 C 449.93 474.65 451.85 485.28 454.47 495.73 C 464.44 494.68 474.94 495.34 483.98 500.05 C 491.76 504.30 496.43 512.40 499.44 520.45 C 503.19 535.13 504.41 550.27 506.31 565.26 C 469.42 570.82 432.18 573.96 394.90 575.13 C 378.30 575.95 361.65 575.29 345.03 575.50 C 313.67 575.51 282.31 575.49 250.95 575.51 C 210.39 574.34 169.82 571.40 129.67 565.24 C 131.40 551.82 132.59 538.30 135.45 525.05 C 136.61 518.16 140.15 511.91 144.30 506.40 C 153.33 495.88 168.58 494.41 181.52 495.83 C 185.67 479.53 187.73 462.75 188.35 445.96 C 188.83 432.62 188.75 419.13 186.14 405.99 C 184.13 395.65 180.37 385.77 176.52 376.00 C 164.32 346.31 147.51 318.81 129.88 292.09 C 109.84 261.80 88.18 232.63 66.76 203.31 C 65.54 202.17 66.51 200.38 67.74 199.74 C 74.07 195.06 80.85 189.94 89.04 189.55 C 96.39 189.33 103.42 191.86 110.47 193.60 C 121.23 196.77 132.24 199.17 143.39 200.41 C 149.29 200.76 155.70 201.11 160.98 197.97 C 166.19 194.61 169.09 188.83 171.51 183.33 C 175.38 173.93 177.97 164.06 180.28 154.19 C 181.58 149.03 184.20 143.58 189.29 141.26 C 194.14 138.90 199.84 140.19 204.40 142.61 C 211.27 146.28 217.37 151.20 223.90 155.42 C 239.26 146.30 256.84 141.74 274.31 138.75 C 265.34 128.32 260.07 114.75 259.87 100.98 C 259.86 85.50 266.36 70.22 277.30 59.29 M 285.93 70.92 C 277.29 81.09 272.34 95.26 275.61 108.51 C 277.87 119.08 284.06 128.82 292.75 135.26 C 294.16 136.48 296.14 135.76 297.81 135.93 C 312.46 133.95 327.27 134.86 341.95 135.89 C 345.23 134.18 348.21 131.49 350.05 128.25 C 352.81 126.11 354.53 123.02 356.16 120.01 C 360.56 111.42 362.90 101.27 360.45 91.75 C 357.84 80.01 350.79 68.69 340.10 62.78 C 336.89 59.84 332.49 58.67 328.54 57.07 C 313.20 52.25 296.23 59.24 285.93 70.92 M 302.13 150.54 C 286.19 152.12 270.18 154.09 254.79 158.71 C 242.84 162.19 231.11 167.40 221.76 175.79 C 210.09 186.07 203.75 201.01 200.57 215.95 C 205.27 213.98 209.72 211.21 213.64 207.99 C 218.24 205.35 222.39 201.12 228.01 200.98 C 234.00 200.75 238.97 205.19 241.97 209.97 C 247.60 219.55 253.04 229.29 259.73 238.19 C 263.10 242.59 266.81 247.02 271.90 249.51 C 275.61 247.03 278.54 243.65 281.18 240.10 C 288.88 229.55 295.97 218.46 305.03 208.99 C 308.53 205.47 312.84 201.95 318.06 201.94 C 323.24 202.02 327.52 205.51 331.00 209.01 C 337.22 215.52 342.51 222.85 347.76 230.14 C 352.68 236.97 357.01 244.64 364.11 249.49 C 369.38 246.92 373.17 242.28 376.64 237.71 C 383.15 228.94 388.51 219.40 394.01 209.99 C 397.17 204.88 402.71 200.20 409.10 201.07 C 414.54 201.70 418.36 205.98 423.04 208.34 L 423.20 208.85 C 427.17 211.43 431.14 214.06 435.36 216.25 C 432.24 199.04 423.85 181.99 409.28 171.71 C 400.72 165.76 391.07 160.96 380.79 158.97 C 377.10 156.91 372.74 156.56 368.70 155.48 C 346.86 151.03 324.40 148.93 302.13 150.54 M 195.29 155.32 L 195.62 156.63 C 193.36 164.88 191.14 173.19 188.58 181.35 C 185.00 190.98 180.94 200.98 173.02 207.90 C 166.52 213.72 157.57 215.89 149.02 215.88 C 134.71 215.84 120.94 211.43 106.87 209.51 C 115.82 214.26 125.16 218.22 134.22 222.74 C 140.16 225.21 145.69 228.74 152.00 230.25 C 157.22 231.65 162.53 232.99 167.97 233.00 C 173.51 232.92 178.14 229.49 182.85 226.99 C 186.09 206.92 191.61 186.09 205.54 170.62 C 207.27 168.68 209.09 166.82 210.96 165.01 C 205.81 161.67 201.10 157.47 195.29 155.32 M 425.46 164.97 C 427.51 167.19 429.57 169.41 431.60 171.66 C 444.01 186.30 449.55 205.27 452.67 223.86 C 453.05 225.16 452.80 227.02 454.31 227.66 C 458.87 230.17 463.59 233.31 469.04 233.00 C 473.27 232.82 477.49 232.07 481.50 230.72 C 484.78 230.38 487.86 229.03 490.89 227.79 C 499.95 223.54 509.01 219.28 518.03 214.95 C 521.23 213.36 524.65 212.17 527.51 209.98 C 516.63 211.24 506.05 214.39 495.14 215.47 C 484.31 216.65 472.18 215.82 463.55 208.42 C 454.21 200.66 450.22 188.82 446.09 177.84 C 444.65 170.99 442.10 164.41 440.85 157.51 C 440.67 157.00 440.32 155.98 440.14 155.47 C 434.82 157.91 430.11 161.46 425.46 164.97 M 199.70 234.72 C 193.76 238.65 187.48 242.03 181.12 245.22 C 174.10 248.64 165.98 248.67 158.43 247.34 C 150.63 245.94 142.88 243.85 135.76 240.30 C 124.12 235.12 112.78 229.27 101.14 224.11 C 131.82 266.84 162.64 309.93 185.51 357.48 C 185.56 360.35 187.71 362.71 188.67 365.35 C 193.95 375.34 196.67 386.38 199.55 397.24 C 203.64 413.47 204.01 430.37 203.32 447.01 C 202.66 463.60 200.73 480.16 196.85 496.31 C 203.18 497.58 209.60 498.28 216.02 498.91 C 236.63 500.60 257.31 501.48 277.98 501.27 C 310.65 501.27 343.32 501.26 375.99 501.27 C 385.30 501.40 394.61 500.78 403.89 500.14 C 413.00 499.89 422.05 498.72 431.13 497.93 C 433.90 497.74 436.63 497.14 439.29 496.36 C 436.20 480.36 433.34 464.25 432.83 447.93 C 431.44 424.60 436.03 401.41 442.31 379.05 C 443.97 372.05 447.16 365.57 450.05 359.03 C 459.20 338.88 470.30 319.69 482.03 300.95 C 484.42 297.00 487.32 293.34 489.16 289.08 C 492.34 285.84 494.33 281.66 497.00 278.02 C 505.23 265.50 514.21 253.48 522.47 241.00 L 522.90 240.86 C 526.61 235.38 530.82 230.25 534.25 224.59 C 519.93 230.47 506.42 238.25 491.96 243.79 C 480.28 247.34 467.07 250.74 455.37 245.48 C 448.83 242.30 442.46 238.74 436.35 234.79 C 429.64 230.85 422.93 226.90 416.41 222.65 C 413.43 220.76 410.78 218.34 407.49 217.00 C 401.22 228.03 394.92 239.12 387.09 249.15 C 384.37 252.76 380.91 255.72 377.99 259.16 C 373.61 261.55 369.26 264.69 364.04 264.64 C 357.17 264.32 351.51 259.66 347.12 254.74 C 336.86 242.85 329.50 228.57 318.02 217.71 C 306.63 228.38 299.34 242.48 289.29 254.28 C 285.01 259.16 279.62 263.82 272.92 264.58 C 267.31 265.03 262.35 261.82 258.09 258.57 L 257.56 258.50 C 244.96 246.73 237.03 231.22 228.14 216.70 C 219.03 223.28 209.39 229.06 199.70 234.72 M 160.91 512.77 C 156.35 514.42 154.26 519.25 152.34 523.32 C 149.11 532.65 147.89 542.53 146.60 552.28 C 151.05 552.81 155.48 553.43 159.93 554.01 C 184.49 556.91 209.18 558.70 233.89 559.63 C 248.90 560.58 263.94 560.70 278.98 560.42 C 283.49 560.24 288.04 560.76 292.51 560.01 C 294.97 560.44 297.46 560.57 299.96 560.51 C 340.68 560.11 381.45 561.58 422.10 558.61 C 444.56 557.51 466.96 555.33 489.22 552.20 C 488.51 544.60 487.22 537.05 485.49 529.61 C 484.20 524.00 482.03 518.25 477.74 514.23 C 473.14 511.20 467.40 510.72 462.04 510.99 C 458.30 511.28 454.56 511.52 450.82 511.75 C 429.83 512.78 409.00 515.93 387.99 516.55 C 347.68 516.51 307.36 516.54 267.05 516.53 C 256.34 516.43 245.61 516.87 234.93 515.83 C 219.38 515.06 203.95 512.49 188.39 512.11 C 179.29 511.66 169.66 509.17 160.91 512.77 Z" />
<path fill="#707575" stroke="#707575" stroke-width="0.09375" opacity="1.00" d=" M 285.93 70.92 C 296.23 59.24 313.20 52.25 328.54 57.07 C 320.58 61.88 312.07 65.91 304.97 72.02 C 294.51 80.74 287.85 94.26 288.46 107.98 C 288.64 115.97 291.97 123.43 295.75 130.32 C 296.74 132.06 297.37 133.98 297.81 135.93 C 296.14 135.76 294.16 136.48 292.75 135.26 C 284.06 128.82 277.87 119.08 275.61 108.51 C 272.34 95.26 277.29 81.09 285.93 70.92 Z" />
<path fill="#4f5454" stroke="#4f5454" stroke-width="0.09375" opacity="1.00" d=" M 328.54 57.07 C 332.49 58.67 336.89 59.84 340.10 62.78 C 346.19 72.41 352.97 82.34 354.10 94.00 C 355.94 105.57 353.29 117.19 350.05 128.25 C 348.21 131.49 345.23 134.18 341.95 135.89 C 327.27 134.86 312.46 133.95 297.81 135.93 C 297.37 133.98 296.74 132.06 295.75 130.32 C 291.97 123.43 288.64 115.97 288.46 107.98 C 287.85 94.26 294.51 80.74 304.97 72.02 C 312.07 65.91 320.58 61.88 328.54 57.07 Z" />
<path fill="#414444" stroke="#414444" stroke-width="0.09375" opacity="1.00" d=" M 340.10 62.78 C 350.79 68.69 357.84 80.01 360.45 91.75 C 362.90 101.27 360.56 111.42 356.16 120.01 C 354.53 123.02 352.81 126.11 350.05 128.25 C 353.29 117.19 355.94 105.57 354.10 94.00 C 352.97 82.34 346.19 72.41 340.10 62.78 Z" />
<path fill="#4f5454" stroke="#4f5454" stroke-width="0.09375" opacity="1.00" d=" M 302.13 150.54 C 324.40 148.93 346.86 151.03 368.70 155.48 C 372.74 156.56 377.10 156.91 380.79 158.97 C 391.44 167.65 403.07 175.49 411.33 186.69 C 416.10 193.36 420.61 200.44 423.04 208.34 C 418.36 205.98 414.54 201.70 409.10 201.07 C 402.71 200.20 397.17 204.88 394.01 209.99 C 388.51 219.40 383.15 228.94 376.64 237.71 C 373.17 242.28 369.38 246.92 364.11 249.49 C 357.01 244.64 352.68 236.97 347.76 230.14 C 342.51 222.85 337.22 215.52 331.00 209.01 C 327.52 205.51 323.24 202.02 318.06 201.94 C 312.84 201.95 308.53 205.47 305.03 208.99 C 295.97 218.46 288.88 229.55 281.18 240.10 C 278.54 243.65 275.61 247.03 271.90 249.51 C 266.81 247.02 263.10 242.59 259.73 238.19 C 253.04 229.29 247.60 219.55 241.97 209.97 C 238.97 205.19 234.00 200.75 228.01 200.98 C 222.39 201.12 218.24 205.35 213.64 207.99 C 215.59 195.46 224.85 185.89 234.77 178.83 C 255.15 164.09 279.76 156.96 304.01 151.59 C 303.54 151.33 302.60 150.80 302.13 150.54 Z" />
<path fill="#707575" stroke="#707575" stroke-width="0.09375" opacity="1.00" d=" M 254.79 158.71 C 270.18 154.09 286.19 152.12 302.13 150.54 C 302.60 150.80 303.54 151.33 304.01 151.59 C 279.76 156.96 255.15 164.09 234.77 178.83 C 224.85 185.89 215.59 195.46 213.64 207.99 C 209.72 211.21 205.27 213.98 200.57 215.95 C 203.75 201.01 210.09 186.07 221.76 175.79 C 231.11 167.40 242.84 162.19 254.79 158.71 Z" />
<path fill="#707575" stroke="#707575" stroke-width="0.09375" opacity="1.00" d=" M 195.29 155.32 C 201.10 157.47 205.81 161.67 210.96 165.01 C 209.09 166.82 207.27 168.68 205.54 170.62 C 201.45 166.57 198.73 161.42 195.62 156.63 L 195.29 155.32 Z" />
<path fill="#414444" stroke="#414444" stroke-width="0.09375" opacity="1.00" d=" M 425.46 164.97 C 430.11 161.46 434.82 157.91 440.14 155.47 C 440.32 155.98 440.67 157.00 440.85 157.51 C 437.36 161.94 434.33 166.72 431.60 171.66 C 429.57 169.41 427.51 167.19 425.46 164.97 Z" />
<path fill="#4f5454" stroke="#4f5454" stroke-width="0.09375" opacity="1.00" d=" M 188.58 181.35 C 191.14 173.19 193.36 164.88 195.62 156.63 C 198.73 161.42 201.45 166.57 205.54 170.62 C 191.61 186.09 186.09 206.92 182.85 226.99 C 178.14 229.49 173.51 232.92 167.97 233.00 C 162.53 232.99 157.22 231.65 152.00 230.25 C 162.31 230.04 173.28 226.17 179.57 217.60 C 185.23 209.94 187.12 200.31 188.36 191.06 C 188.89 187.84 188.77 184.58 188.58 181.35 Z" />
<path fill="#4f5454" stroke="#4f5454" stroke-width="0.09375" opacity="1.00" d=" M 431.60 171.66 C 434.33 166.72 437.36 161.94 440.85 157.51 C 442.10 164.41 444.65 170.99 446.09 177.84 C 447.07 191.57 447.75 206.42 456.00 218.06 C 461.91 226.16 471.89 229.63 481.50 230.72 C 477.49 232.07 473.27 232.82 469.04 233.00 C 463.59 233.31 458.87 230.17 454.31 227.66 C 452.80 227.02 453.05 225.16 452.67 223.86 C 449.55 205.27 444.01 186.30 431.60 171.66 Z" />
<path fill="#414444" stroke="#414444" stroke-width="0.09375" opacity="1.00" d=" M 380.79 158.97 C 391.07 160.96 400.72 165.76 409.28 171.71 C 423.85 181.99 432.24 199.04 435.36 216.25 C 431.14 214.06 427.17 211.43 423.20 208.85 L 423.04 208.34 C 420.61 200.44 416.10 193.36 411.33 186.69 C 403.07 175.49 391.44 167.65 380.79 158.97 Z" />
<path fill="#414444" stroke="#414444" stroke-width="0.09375" opacity="1.00" d=" M 446.09 177.84 C 450.22 188.82 454.21 200.66 463.55 208.42 C 472.18 215.82 484.31 216.65 495.14 215.47 C 506.05 214.39 516.63 211.24 527.51 209.98 C 524.65 212.17 521.23 213.36 518.03 214.95 C 509.01 219.28 499.95 223.54 490.89 227.79 C 487.86 229.03 484.78 230.38 481.50 230.72 C 471.89 229.63 461.91 226.16 456.00 218.06 C 447.75 206.42 447.07 191.57 446.09 177.84 Z" />
<path fill="#707575" stroke="#707575" stroke-width="0.09375" opacity="1.00" d=" M 188.58 181.35 C 188.77 184.58 188.89 187.84 188.36 191.06 C 187.12 200.31 185.23 209.94 179.57 217.60 C 173.28 226.17 162.31 230.04 152.00 230.25 C 145.69 228.74 140.16 225.21 134.22 222.74 C 125.16 218.22 115.82 214.26 106.87 209.51 C 120.94 211.43 134.71 215.84 149.02 215.88 C 157.57 215.89 166.52 213.72 173.02 207.90 C 180.94 200.98 185.00 190.98 188.58 181.35 Z" />
<path fill="#707575" stroke="#707575" stroke-width="0.09375" opacity="1.00" d=" M 199.70 234.72 C 209.39 229.06 219.03 223.28 228.14 216.70 C 237.03 231.22 244.96 246.73 257.56 258.50 C 255.69 258.37 253.92 257.72 252.32 256.76 C 242.42 251.03 233.16 244.16 225.06 236.07 C 210.78 245.05 196.34 254.42 179.89 258.90 C 168.17 262.11 155.56 261.73 144.01 257.98 C 140.15 256.75 136.47 255.06 132.63 253.80 C 146.45 277.06 164.06 298.21 174.64 323.32 C 178.63 332.41 181.51 341.93 184.70 351.31 C 185.43 353.28 185.66 355.39 185.51 357.48 C 162.64 309.93 131.82 266.84 101.14 224.11 C 112.78 229.27 124.12 235.12 135.76 240.30 C 142.88 243.85 150.63 245.94 158.43 247.34 C 165.98 248.67 174.10 248.64 181.12 245.22 C 187.48 242.03 193.76 238.65 199.70 234.72 Z" />
<path fill="#414444" stroke="#414444" stroke-width="0.09375" opacity="1.00" d=" M 407.49 217.00 C 410.78 218.34 413.43 220.76 416.41 222.65 C 422.93 226.90 429.64 230.85 436.35 234.79 C 442.46 238.74 448.83 242.30 455.37 245.48 C 467.07 250.74 480.28 247.34 491.96 243.79 C 506.42 238.25 519.93 230.47 534.25 224.59 C 530.82 230.25 526.61 235.38 522.90 240.86 L 522.47 241.00 C 516.29 242.81 510.90 246.48 504.99 248.94 C 490.32 255.51 474.20 261.46 457.90 258.34 C 440.36 254.95 426.48 242.90 410.96 234.92 C 406.36 239.01 401.88 243.26 396.86 246.84 C 390.74 251.19 384.86 256.01 377.99 259.16 C 380.91 255.72 384.37 252.76 387.09 249.15 C 394.92 239.12 401.22 228.03 407.49 217.00 Z" />
<path fill="#4f5454" stroke="#4f5454" stroke-width="0.09375" opacity="1.00" d=" M 289.29 254.28 C 299.34 242.48 306.63 228.38 318.02 217.71 C 329.50 228.57 336.86 242.85 347.12 254.74 C 351.51 259.66 357.17 264.32 364.04 264.64 C 369.26 264.69 373.61 261.55 377.99 259.16 C 384.86 256.01 390.74 251.19 396.86 246.84 C 401.88 243.26 406.36 239.01 410.96 234.92 C 426.48 242.90 440.36 254.95 457.90 258.34 C 474.20 261.46 490.32 255.51 504.99 248.94 C 510.90 246.48 516.29 242.81 522.47 241.00 C 514.21 253.48 505.23 265.50 497.00 278.02 C 494.33 281.66 492.34 285.84 489.16 289.08 C 477.42 297.52 466.59 307.18 456.07 317.08 C 452.76 319.76 449.74 322.77 447.04 326.07 C 440.63 333.02 434.08 340.03 429.39 348.30 C 426.69 353.92 423.03 359.07 420.91 364.97 C 416.70 376.11 412.49 387.32 410.07 399.00 C 408.28 407.40 406.77 415.85 405.50 424.34 C 403.65 436.47 403.86 448.77 403.15 461.00 C 403.42 474.04 402.50 487.15 403.89 500.14 C 394.61 500.78 385.30 501.40 375.99 501.27 C 343.32 501.26 310.65 501.27 277.98 501.27 C 257.31 501.48 236.63 500.60 216.02 498.91 C 209.60 498.28 203.18 497.58 196.85 496.31 C 200.73 480.16 202.66 463.60 203.32 447.01 C 204.01 430.37 203.64 413.47 199.55 397.24 C 196.67 386.38 193.95 375.34 188.67 365.35 C 187.71 362.71 185.56 360.35 185.51 357.48 C 185.66 355.39 185.43 353.28 184.70 351.31 C 181.51 341.93 178.63 332.41 174.64 323.32 C 164.06 298.21 146.45 277.06 132.63 253.80 C 136.47 255.06 140.15 256.75 144.01 257.98 C 155.56 261.73 168.17 262.11 179.89 258.90 C 196.34 254.42 210.78 245.05 225.06 236.07 C 233.16 244.16 242.42 251.03 252.32 256.76 C 253.92 257.72 255.69 258.37 257.56 258.50 L 258.09 258.57 C 262.35 261.82 267.31 265.03 272.92 264.58 C 279.62 263.82 285.01 259.16 289.29 254.28 Z" />
<path fill="#414444" stroke="#414444" stroke-width="0.09375" opacity="1.00" d=" M 456.07 317.08 C 466.59 307.18 477.42 297.52 489.16 289.08 C 487.32 293.34 484.42 297.00 482.03 300.95 C 470.30 319.69 459.20 338.88 450.05 359.03 C 447.16 365.57 443.97 372.05 442.31 379.05 C 436.03 401.41 431.44 424.60 432.83 447.93 C 433.34 464.25 436.20 480.36 439.29 496.36 C 436.63 497.14 433.90 497.74 431.13 497.93 C 422.05 498.72 413.00 499.89 403.89 500.14 C 402.50 487.15 403.42 474.04 403.15 461.00 C 403.86 448.77 403.65 436.47 405.50 424.34 C 406.77 415.85 408.28 407.40 410.07 399.00 C 412.49 387.32 416.70 376.11 420.91 364.97 C 423.03 359.07 426.69 353.92 429.39 348.30 C 434.08 340.03 440.63 333.02 447.04 326.07 C 449.74 322.77 452.76 319.76 456.07 317.08 Z" />
<path fill="#707575" stroke="#707575" stroke-width="0.09375" opacity="1.00" d=" M 160.91 512.77 C 169.66 509.17 179.29 511.66 188.39 512.11 C 182.94 514.02 177.29 515.99 172.84 519.82 C 169.85 522.36 167.88 525.83 166.19 529.30 C 162.46 537.01 160.58 545.50 159.93 554.01 C 155.48 553.43 151.05 552.81 146.60 552.28 C 147.89 542.53 149.11 532.65 152.34 523.32 C 154.26 519.25 156.35 514.42 160.91 512.77 Z" />
<path fill="#4f5454" stroke="#4f5454" stroke-width="0.09375" opacity="1.00" d=" M 450.82 511.75 C 454.56 511.52 458.30 511.28 462.04 510.99 C 466.09 519.16 469.89 527.72 470.92 536.87 C 452.12 540.02 433.21 542.51 414.38 545.50 C 392.87 548.97 371.28 552.04 349.63 554.56 C 334.13 556.14 318.60 557.44 303.08 558.82 C 299.54 559.05 295.99 559.30 292.51 560.01 C 288.04 560.76 283.49 560.24 278.98 560.42 C 263.94 560.70 248.90 560.58 233.89 559.63 C 209.18 558.70 184.49 556.91 159.93 554.01 C 160.58 545.50 162.46 537.01 166.19 529.30 C 167.88 525.83 169.85 522.36 172.84 519.82 C 177.29 515.99 182.94 514.02 188.39 512.11 C 203.95 512.49 219.38 515.06 234.93 515.83 C 245.61 516.87 256.34 516.43 267.05 516.53 C 307.36 516.54 347.68 516.51 387.99 516.55 C 409.00 515.93 429.83 512.78 450.82 511.75 Z" />
<path fill="#414444" stroke="#414444" stroke-width="0.09375" opacity="1.00" d=" M 462.04 510.99 C 467.40 510.72 473.14 511.20 477.74 514.23 C 482.03 518.25 484.20 524.00 485.49 529.61 C 487.22 537.05 488.51 544.60 489.22 552.20 C 466.96 555.33 444.56 557.51 422.10 558.61 C 381.45 561.58 340.68 560.11 299.96 560.51 C 297.46 560.57 294.97 560.44 292.51 560.01 C 295.99 559.30 299.54 559.05 303.08 558.82 C 318.60 557.44 334.13 556.14 349.63 554.56 C 371.28 552.04 392.87 548.97 414.38 545.50 C 433.21 542.51 452.12 540.02 470.92 536.87 C 469.89 527.72 466.09 519.16 462.04 510.99 Z" />
</svg>
